<svg width="27" height="27" viewBox="0 0 27 27" fill="none" xmlns="http://www.w3.org/2000/svg">
<path d="M23.3836 3.61975C23.2697 3.50641 23.1258 3.42794 22.9689 3.39357C22.812 3.35919 22.6485 3.37033 22.4976 3.42569L3.93514 10.1757C3.77505 10.2364 3.63723 10.3444 3.53997 10.4853C3.44271 10.6262 3.39062 10.7934 3.39062 10.9646C3.39062 11.1358 3.44271 11.303 3.53997 11.4439C3.63723 11.5848 3.77505 11.6928 3.93514 11.7535L11.183 14.6476L16.5323 9.28131L17.722 10.471L12.3473 15.8457L15.2498 23.0935C15.3124 23.2505 15.4206 23.3851 15.5605 23.4799C15.7004 23.5746 15.8655 23.6252 16.0345 23.6251C16.205 23.6216 16.3705 23.5665 16.509 23.4671C16.6476 23.3677 16.7528 23.2286 16.8108 23.0682L23.5608 4.50569C23.6183 4.35641 23.6321 4.19387 23.6007 4.03701C23.5694 3.88015 23.4941 3.73544 23.3836 3.61975Z" fill="white"/>
</svg>
