<svg width="31" height="31" viewBox="0 0 31 31" fill="none" xmlns="http://www.w3.org/2000/svg">
<g id="mdi:linkedin">
<path id="Vector" d="M24.0212 4.25781C24.6843 4.25781 25.3202 4.5212 25.789 4.99005C26.2578 5.45889 26.5212 6.09477 26.5212 6.75781V24.2578C26.5212 24.9209 26.2578 25.5567 25.789 26.0256C25.3202 26.4944 24.6843 26.7578 24.0212 26.7578H6.52124C5.8582 26.7578 5.22231 26.4944 4.75347 26.0256C4.28463 25.5567 4.02124 24.9209 4.02124 24.2578V6.75781C4.02124 6.09477 4.28463 5.45889 4.75347 4.99005C5.22231 4.5212 5.8582 4.25781 6.52124 4.25781H24.0212ZM23.3962 23.6328V17.0078C23.3962 15.9271 22.9669 14.8906 22.2027 14.1264C21.4385 13.3621 20.402 12.9328 19.3212 12.9328C18.2587 12.9328 17.0212 13.5828 16.4212 14.5578V13.1703H12.9337V23.6328H16.4212V17.4703C16.4212 16.5078 17.1962 15.7203 18.1587 15.7203C18.6229 15.7203 19.068 15.9047 19.3962 16.2329C19.7244 16.5611 19.9087 17.0062 19.9087 17.4703V23.6328H23.3962ZM8.87124 11.2078C9.42819 11.2078 9.96234 10.9866 10.3562 10.5927C10.75 10.1989 10.9712 9.66477 10.9712 9.10781C10.9712 7.94531 10.0337 6.99531 8.87124 6.99531C8.31097 6.99531 7.77365 7.21788 7.37748 7.61405C6.98131 8.01022 6.75874 8.54754 6.75874 9.10781C6.75874 10.2703 7.70874 11.2078 8.87124 11.2078ZM10.6087 23.6328V13.1703H7.14624V23.6328H10.6087Z" fill="white"/>
</g>
</svg>
