<svg width="20" height="20" viewBox="0 0 20 20" fill="none" xmlns="http://www.w3.org/2000/svg">
<path d="M14.2924 12.545H13.4011L13.0853 12.2406C13.7903 11.422 14.3056 10.4578 14.5942 9.41697C14.8829 8.37612 14.9377 7.28438 14.7549 6.21986C14.2247 3.08546 11.6074 0.582454 8.4486 0.199111C7.33807 0.0587005 6.21012 0.174048 5.15106 0.536328C4.092 0.898607 3.1299 1.49822 2.33838 2.28927C1.54686 3.08033 0.946903 4.04186 0.584411 5.1003C0.221919 6.15874 0.106504 7.28603 0.246996 8.3959C0.630565 11.5529 3.13504 14.1686 6.27128 14.6985C7.33642 14.8812 8.4288 14.8264 9.47026 14.5379C10.5117 14.2494 11.4765 13.7345 12.2956 13.0299L12.6002 13.3455V14.2363L17.3948 19.0281C17.8573 19.4903 18.6132 19.4903 19.0757 19.0281C19.5382 18.5658 19.5382 17.8104 19.0757 17.3481L14.2924 12.545ZM7.52352 12.545C4.71444 12.545 2.44688 10.2788 2.44688 7.47137C2.44688 4.66394 4.71444 2.3977 7.52352 2.3977C10.3326 2.3977 12.6002 4.66394 12.6002 7.47137C12.6002 10.2788 10.3326 12.545 7.52352 12.545Z" fill="#C9C9C9"/>
</svg>
