<svg width="24" height="24" viewBox="0 0 24 24" fill="none" xmlns="http://www.w3.org/2000/svg">
<path fill-rule="evenodd" clip-rule="evenodd" d="M18.6015 15.6013C18.8944 15.3084 18.8944 14.8335 18.6015 14.5406L12.6705 8.60956C12.6496 8.58192 12.6266 8.5554 12.6014 8.53022C12.4537 8.38248 12.2596 8.30927 12.066 8.31057C11.8723 8.30922 11.6782 8.38244 11.5304 8.53022C11.5053 8.5554 11.4822 8.58193 11.4614 8.60957L5.53034 14.5406C5.23745 14.8335 5.23745 15.3084 5.53034 15.6013C5.82323 15.8942 6.29811 15.8942 6.591 15.6013L12.0659 10.1264L17.5409 15.6013C17.8337 15.8942 18.3086 15.8942 18.6015 15.6013Z" fill="black"/>
</svg>
