<svg width="38" height="38" viewBox="0 0 38 38" fill="none" xmlns="http://www.w3.org/2000/svg">
<g clip-path="url(#clip0_2745_14388)">
<path fill-rule="evenodd" clip-rule="evenodd" d="M21.7951 1.59766C22.5721 1.59785 23.3242 1.87139 23.9197 2.37038L24.1348 2.56728L31.4384 9.87093C31.9878 10.4203 32.3264 11.1455 32.3948 11.9194L32.4081 12.2106V18.1442H29.0988V14.8349H21.6528C21.0358 14.8349 20.441 14.605 19.9842 14.1902C19.5275 13.7754 19.2416 13.2053 19.1824 12.5912L19.1708 12.3529V4.90697H9.2429V31.3814H19.1708V34.6907H9.2429C8.408 34.691 7.60386 34.3757 6.99167 33.808C6.37947 33.2403 6.00448 32.4622 5.94187 31.6296L5.93359 31.3814V4.90697C5.93333 4.07207 6.24865 3.26792 6.81635 2.65573C7.38404 2.04354 8.16216 1.66855 8.9947 1.60593L9.2429 1.59766H21.7951ZM30.2686 22.2213L34.948 26.9023C35.2582 27.2126 35.4324 27.6334 35.4324 28.0721C35.4324 28.5109 35.2582 28.9317 34.948 29.242L30.2686 33.9213C30.116 34.0794 29.9334 34.2054 29.7315 34.2921C29.5296 34.3789 29.3125 34.4245 29.0928 34.4264C28.8731 34.4283 28.6552 34.3865 28.4519 34.3033C28.2485 34.2201 28.0638 34.0972 27.9084 33.9418C27.753 33.7865 27.6302 33.6017 27.547 33.3984C27.4638 33.195 27.4219 32.9771 27.4238 32.7574C27.4257 32.5377 27.4714 32.3206 27.5581 32.1187C27.6448 31.9169 27.7709 31.7343 27.9289 31.5817L29.7838 29.7268H22.4801C22.0413 29.7268 21.6204 29.5525 21.3101 29.2421C20.9998 28.9318 20.8255 28.511 20.8255 28.0721C20.8255 27.6333 20.9998 27.2124 21.3101 26.9021C21.6204 26.5918 22.0413 26.4175 22.4801 26.4175H29.7838L27.9289 24.5626C27.6184 24.2523 27.4439 23.8315 27.4438 23.3925C27.4436 22.9536 27.6178 22.5326 27.9281 22.2221C28.2383 21.9116 28.6592 21.7371 29.0982 21.7369C29.5371 21.7368 29.9581 21.911 30.2686 22.2213ZM22.4801 5.59199V11.5256H28.4137L22.4801 5.59199Z" fill="white"/>
</g>
<defs>
<clipPath id="clip0_2745_14388">
<rect width="38" height="38" fill="white"/>
</clipPath>
</defs>
</svg>
