<svg width="20" height="20" viewBox="0 0 20 20" fill="none" xmlns="http://www.w3.org/2000/svg">
<path d="M18.5047 8.16662L16.7864 4.72867C16.7231 4.60213 16.6355 4.4893 16.5286 4.39662C16.4217 4.30395 16.2975 4.23324 16.1633 4.18853C16.0291 4.14383 15.8873 4.126 15.7462 4.13608C15.6051 4.14615 15.4673 4.18393 15.3408 4.24725L13.6662 5.08418L10.1387 4.15097C10.0482 4.12741 9.95319 4.12741 9.86267 4.15097L6.33517 5.08418L4.66063 4.24725C4.5341 4.18393 4.39634 4.14615 4.25521 4.13608C4.11408 4.126 3.97235 4.14383 3.83811 4.18853C3.70387 4.23324 3.57975 4.30395 3.47284 4.39662C3.36593 4.4893 3.27832 4.60213 3.21502 4.72867L1.49672 8.16595C1.4334 8.29248 1.39562 8.43024 1.38555 8.57137C1.37547 8.7125 1.3933 8.85423 1.438 8.98847C1.48271 9.12271 1.55342 9.24683 1.64609 9.35374C1.73877 9.46065 1.8516 9.54826 1.97814 9.61156L3.7961 10.5212L7.53233 13.1896C7.58741 13.2287 7.64928 13.2572 7.7148 13.2737L12.024 14.351C12.1143 14.3737 12.2088 14.3725 12.2985 14.3478C12.3882 14.323 12.4699 14.2754 12.5357 14.2096L15.229 11.5164L16.2444 10.501L18.0233 9.61156C18.2786 9.48372 18.4728 9.2597 18.5631 8.98875C18.6534 8.7178 18.6324 8.42209 18.5047 8.16662ZM14.8089 10.4135L12.492 8.55782C12.3882 8.4747 12.2573 8.43291 12.1245 8.44049C11.9918 8.44807 11.8665 8.50449 11.7729 8.59889C10.5737 9.80682 9.23716 9.65398 8.38474 9.11533L11.2962 6.2874H13.438L15.2701 9.95091L14.8089 10.4135ZM11.9897 13.232L8.07637 12.2537L4.76365 9.88762L6.64894 6.11705L10.0007 5.22895L10.6606 5.40333L7.63063 8.34438L7.62524 8.35044C7.51119 8.46449 7.4242 8.60271 7.3707 8.75487C7.31719 8.90704 7.29854 9.06928 7.31612 9.22962C7.3337 9.38996 7.38706 9.5443 7.47226 9.68126C7.55746 9.81822 7.67233 9.9343 7.80839 10.0209C9.19272 10.905 10.8632 10.7616 12.1789 9.68428L14.0406 11.1797L11.9897 13.232ZM10.2579 15.5751C10.2288 15.6915 10.1617 15.7949 10.0671 15.8688C9.9726 15.9427 9.85609 15.983 9.73609 15.9832C9.69183 15.9832 9.64773 15.9778 9.60479 15.967L6.79639 15.2647C6.73077 15.2485 6.66885 15.22 6.61392 15.1806L4.83974 13.9134C4.73065 13.8277 4.6588 13.7033 4.63916 13.566C4.61951 13.4287 4.65359 13.2891 4.73429 13.1763C4.81499 13.0635 4.93609 12.9862 5.07237 12.9604C5.20866 12.9347 5.34963 12.9625 5.46592 13.0381L7.15662 14.246L9.86604 14.922C10.0046 14.9567 10.1237 15.0449 10.1972 15.1674C10.2707 15.2899 10.2925 15.4365 10.2579 15.5751Z" fill="url(#paint0_linear_5061_3803)"/>
<defs>
<linearGradient id="paint0_linear_5061_3803" x1="10.0006" y1="4.1333" x2="10.0006" y2="15.9832" gradientUnits="userSpaceOnUse">
<stop stop-color="#ABA2FF"/>
<stop offset="1" stop-color="#03D4EF"/>
</linearGradient>
</defs>
</svg>
