<svg width="20" height="20" viewBox="0 0 20 20" fill="none" xmlns="http://www.w3.org/2000/svg">
<path d="M17.1173 12.4458C17.3438 12.8283 17.4943 13.2536 17.5607 13.6958C17.627 14.1379 17.6079 14.5894 17.504 15.0239C17.4001 15.4585 17.2135 15.8682 16.9552 16.229C16.6968 16.5898 16.3708 16.8953 15.9972 17.1274C15.6238 17.3593 15.2091 17.5136 14.7775 17.5815C14.3458 17.6494 13.9047 17.6294 13.4806 17.5229C13.0566 17.4164 12.6568 17.225 12.3048 16.9604C11.9528 16.6957 11.6543 16.3624 11.4279 15.9799L14.2726 14.2133L17.1173 12.4458ZM13.5646 10.5014C13.9961 10.4336 14.4374 10.4537 14.8614 10.56C15.2854 10.6665 15.6852 10.8581 16.0372 11.1225C16.3893 11.3871 16.6877 11.7206 16.9142 12.103L14.0695 13.8706L11.2247 15.6372C10.9985 15.2548 10.8477 14.8301 10.7814 14.3882C10.7151 13.9459 10.7341 13.4936 10.838 13.059C10.942 12.6246 11.1285 12.2147 11.3868 11.854C11.6451 11.4934 11.9706 11.1885 12.3439 10.9565C12.7173 10.7245 13.1329 10.5694 13.5646 10.5014ZM5.95324 3.99167C6.62492 2.56376 8.32885 1.97757 9.74426 2.67526L10.0001 2.81784C11.2315 3.58858 11.733 5.19345 11.1036 6.53268L7.81262 13.5346L7.67492 13.7934C7.52821 14.0371 7.3467 14.2494 7.14367 14.4311C7.12957 14.4438 7.11405 14.4549 7.09973 14.4673C6.97882 14.5711 6.85127 14.6647 6.71594 14.7456C6.68814 14.7622 6.65931 14.7778 6.63098 14.7934C6.58228 14.8203 6.53267 14.8457 6.48254 14.8696C6.45186 14.8842 6.42094 14.8981 6.38977 14.9116C6.34138 14.9325 6.29274 14.953 6.24328 14.9712C6.20772 14.9842 6.17094 14.9957 6.13488 15.0073C6.08729 15.0226 6.0397 15.0375 5.99133 15.0503C5.95549 15.0597 5.91915 15.0686 5.88293 15.0766C5.82843 15.0887 5.77312 15.0991 5.71789 15.1079C5.68706 15.1128 5.65614 15.1176 5.62512 15.1215C5.57201 15.1282 5.51852 15.1326 5.46496 15.1362C5.42626 15.1389 5.38763 15.142 5.34875 15.143C5.29969 15.1443 5.25054 15.1434 5.20129 15.1421C5.16109 15.141 5.12047 15.1399 5.08019 15.1372C5.03701 15.1342 4.99352 15.1295 4.95031 15.1245C4.90063 15.1187 4.85052 15.1134 4.8009 15.1049C4.77503 15.1005 4.74958 15.0935 4.72375 15.0883C4.5725 15.0582 4.42182 15.0176 4.27355 14.9614C4.26111 14.9567 4.24886 14.9497 4.23644 14.9448C4.16391 14.9161 4.0909 14.8871 4.01965 14.852C3.87232 14.7794 3.73503 14.6926 3.60559 14.5991C3.58825 14.5865 3.56987 14.5748 3.55285 14.562C3.50012 14.5221 3.44902 14.4801 3.39953 14.437C3.38474 14.4241 3.37008 14.4111 3.35559 14.3979C3.31056 14.3571 3.26784 14.3143 3.2257 14.271C3.20584 14.2505 3.18535 14.2304 3.16613 14.2094C3.12458 14.1641 3.08545 14.1165 3.04699 14.0688C3.03538 14.0544 3.02316 14.0395 3.01184 14.0249C2.97073 13.9719 2.93095 13.9182 2.89367 13.8628C2.88274 13.8465 2.87301 13.8294 2.86242 13.813C2.82835 13.76 2.79534 13.7067 2.76477 13.6518C2.75549 13.6352 2.74637 13.6179 2.73742 13.601C2.5992 13.3411 2.49963 13.0626 2.44348 12.7739C2.4397 12.7545 2.43613 12.7348 2.43273 12.7153C2.42167 12.6515 2.41321 12.5865 2.40637 12.5219C2.40439 12.5034 2.40212 12.4849 2.40051 12.4663C2.39464 12.3985 2.39185 12.3304 2.39074 12.2622C2.39048 12.2463 2.39074 12.2302 2.39074 12.2143C2.39076 12.151 2.39142 12.0874 2.39562 12.0239C2.39739 11.9972 2.40092 11.9706 2.40344 11.9438C2.40913 11.8835 2.41537 11.8233 2.42492 11.7632C2.42808 11.7433 2.43304 11.7234 2.43664 11.7036C2.48006 11.4635 2.55121 11.2246 2.6593 10.9946L4.3048 7.49264L4.30676 7.49362L5.95324 3.99167ZM9.37023 3.47214C8.38551 2.98663 7.20505 3.39739 6.7423 4.38132L5.09582 7.88327L8.66906 9.64596L10.3155 6.14401C10.7779 5.16001 10.3545 3.95815 9.37023 3.47214ZM7.69738 4.0776C8.01691 3.87814 8.36708 3.84146 8.71594 3.93307C8.89093 3.97952 8.99839 4.16109 8.95519 4.33835C8.91141 4.51526 8.7338 4.62247 8.55871 4.57663C8.36524 4.52575 8.20011 4.54729 8.04504 4.64401C7.87933 4.74769 7.69612 4.95618 7.52062 5.32956L6.23352 8.06882L5.64172 7.77682L6.92883 5.03757C7.13469 4.59957 7.38823 4.27092 7.69738 4.0776Z" fill="url(#paint0_linear_5013_1669)"/>
<defs>
<linearGradient id="paint0_linear_5013_1669" x1="9.99497" y1="2.38135" x2="9.99497" y2="17.6209" gradientUnits="userSpaceOnUse">
<stop stop-color="#ABA2FF"/>
<stop offset="1" stop-color="#03D4EF"/>
</linearGradient>
</defs>
</svg>
