<svg width="20" height="20" viewBox="0 0 20 20" fill="none" xmlns="http://www.w3.org/2000/svg">
<path d="M15.8662 2.80005C16.6018 2.80084 17.1991 3.39727 17.1992 4.13306V11.9329C17.1992 12.2269 16.9599 12.4662 16.666 12.467C16.3717 12.4669 16.1329 12.2272 16.1328 11.9329V6.13306H3.86621V15.8665C3.86628 16.0132 3.98603 16.1331 4.13379 16.1331H12.1328L12.2402 16.1438C12.4826 16.1939 12.6658 16.4091 12.666 16.6663C12.666 16.9235 12.4826 17.1385 12.2402 17.1887L12.1328 17.1995H4.13379C3.39797 17.1995 2.79694 16.6033 2.79688 15.8665V4.13306C2.797 3.39685 3.3966 2.80015 4.13281 2.80005H15.8662ZM12.3809 8.27173C14.2479 8.36622 15.7324 9.90959 15.7324 11.8L15.7285 11.9817C15.6907 12.7288 15.4197 13.4141 14.9883 13.968L16.6436 15.6233L16.7119 15.7063C16.8487 15.9133 16.8259 16.1949 16.6436 16.3772C16.4612 16.5594 16.1796 16.5824 15.9727 16.4456L15.8896 16.3772L14.2139 14.7014C13.6422 15.0989 12.9482 15.3333 12.1992 15.3333L12.0176 15.3293C10.2108 15.2378 8.76245 13.7884 8.6709 11.9817L8.66602 11.8C8.66609 9.84875 10.2479 8.26692 12.1992 8.26685L12.3809 8.27173ZM12.1992 9.33325C10.837 9.33332 9.73249 10.4378 9.73242 11.8C9.73255 13.1622 10.8371 14.2668 12.1992 14.2668C13.5614 14.2668 14.6659 13.1622 14.666 11.8C14.6659 10.4378 13.5615 9.33325 12.1992 9.33325Z" fill="url(#paint0_linear_5061_3777)"/>
<defs>
<linearGradient id="paint0_linear_5061_3777" x1="9.99805" y1="2.80005" x2="9.99805" y2="17.1995" gradientUnits="userSpaceOnUse">
<stop stop-color="#ABA2FF"/>
<stop offset="1" stop-color="#03D4EF"/>
</linearGradient>
</defs>
</svg>
