<svg xmlns="http://www.w3.org/2000/svg" width="22" height="22" fill="none"><path fill="#8797A6" fill-rule="evenodd" d="M6.382 12.31A1.055 1.055 0 0 1 6 11.514c0-.299.137-.585.382-.797l7.376-6.373c.12-.108.264-.193.423-.253a1.481 1.481 0 0 1 1.009-.007c.16.057.306.14.428.246.123.106.22.232.285.37a.994.994 0 0 1-.009.871 1.137 1.137 0 0 1-.292.366l-6.455 5.577 6.455 5.577c.237.212.369.497.366.792-.003.296-.14.578-.382.787a1.413 1.413 0 0 1-.91.33 1.42 1.42 0 0 1-.918-.316L6.382 12.31Z" clip-rule="evenodd"/></svg>