<svg width="13" height="13" viewBox="0 0 13 13" fill="none" xmlns="http://www.w3.org/2000/svg">
<path d="M9.225 7.75C9.275 7.3375 9.3125 6.925 9.3125 6.5C9.3125 6.075 9.275 5.6625 9.225 5.25H11.3375C11.4375 5.65 11.5 6.06875 11.5 6.5C11.5 6.93125 11.4375 7.35 11.3375 7.75M8.11875 11.225C8.49375 10.5312 8.78125 9.78125 8.98125 9H10.825C10.2195 10.0427 9.25882 10.8325 8.11875 11.225ZM7.9625 7.75H5.0375C4.975 7.3375 4.9375 6.925 4.9375 6.5C4.9375 6.075 4.975 5.65625 5.0375 5.25H7.9625C8.01875 5.65625 8.0625 6.075 8.0625 6.5C8.0625 6.925 8.01875 7.3375 7.9625 7.75ZM6.5 11.475C5.98125 10.725 5.5625 9.89375 5.30625 9H7.69375C7.4375 9.89375 7.01875 10.725 6.5 11.475ZM4 4H2.175C2.77428 2.95451 3.73425 2.16343 4.875 1.775C4.5 2.46875 4.21875 3.21875 4 4ZM2.175 9H4C4.21875 9.78125 4.5 10.5312 4.875 11.225C3.73664 10.8323 2.77803 10.0423 2.175 9ZM1.6625 7.75C1.5625 7.35 1.5 6.93125 1.5 6.5C1.5 6.06875 1.5625 5.65 1.6625 5.25H3.775C3.725 5.6625 3.6875 6.075 3.6875 6.5C3.6875 6.925 3.725 7.3375 3.775 7.75M6.5 1.51875C7.01875 2.26875 7.4375 3.10625 7.69375 4H5.30625C5.5625 3.10625 5.98125 2.26875 6.5 1.51875ZM10.825 4H8.98125C8.78564 3.22591 8.49598 2.47868 8.11875 1.775C9.26875 2.16875 10.225 2.9625 10.825 4ZM6.5 0.25C3.04375 0.25 0.25 3.0625 0.25 6.5C0.25 8.1576 0.90848 9.74732 2.08058 10.9194C2.66095 11.4998 3.34994 11.9602 4.10823 12.2742C4.86651 12.5883 5.67924 12.75 6.5 12.75C8.1576 12.75 9.74732 12.0915 10.9194 10.9194C12.0915 9.74732 12.75 8.1576 12.75 6.5C12.75 5.67924 12.5883 4.86651 12.2742 4.10823C11.9602 3.34994 11.4998 2.66095 10.9194 2.08058C10.3391 1.50022 9.65006 1.03984 8.89177 0.725753C8.13349 0.411661 7.32076 0.25 6.5 0.25Z" fill="#009BAF"/>
</svg>
