<svg width="24" height="24" viewBox="0 0 24 24" fill="none" xmlns="http://www.w3.org/2000/svg">
<path d="M24.0001 12.0734C24.0001 5.40441 18.6271 -0.00158691 12.0001 -0.00158691C5.37007 -8.6914e-05 -0.00292969 5.40441 -0.00292969 12.0749C-0.00292969 18.1004 4.38607 23.0954 10.1221 24.0014V15.5639H7.07707V12.0749H10.1251V9.41241C10.1251 6.38691 11.9176 4.71591 14.6581 4.71591C15.9721 4.71591 17.3446 4.95141 17.3446 4.95141V7.92141H15.8311C14.3416 7.92141 13.8766 8.85291 13.8766 9.80841V12.0734H17.2036L16.6726 15.5624H13.8751V23.9999C19.6111 23.0939 24.0001 18.0989 24.0001 12.0734Z" fill="#009BAF"/>
</svg>
