<svg width="24" height="24" viewBox="0 0 24 24" fill="none" xmlns="http://www.w3.org/2000/svg">
<path d="M17.3826 15.9207C17.5699 15.3723 18.3279 15.3557 18.55 15.8709L18.5691 15.9207L18.8218 16.6604C18.8797 16.8299 18.9735 16.985 19.0964 17.1152C19.2194 17.2454 19.3686 17.3479 19.5344 17.4155L19.6025 17.4412L20.3423 17.6939C20.8905 17.8813 20.9068 18.6385 20.3921 18.8606L20.3423 18.8797L19.6025 19.1323C19.433 19.1902 19.278 19.2841 19.1477 19.407C19.0173 19.53 18.9143 19.6797 18.8467 19.8457L18.8218 19.9131L18.5691 20.6528C18.3818 21.2011 17.6243 21.2179 17.4023 20.7034L17.3826 20.6528L17.1299 19.9138C17.072 19.7443 16.9789 19.5886 16.856 19.4583C16.733 19.3279 16.5832 19.2256 16.4172 19.158L16.3491 19.1323L15.6101 18.8797C15.0615 18.6923 15.0446 17.9348 15.5596 17.7129L15.6101 17.6939L16.3491 17.4412C16.5187 17.3832 16.6744 17.2895 16.8047 17.1665C16.935 17.0435 17.0374 16.8938 17.105 16.7278L17.1299 16.6604L17.3826 15.9207Z" fill="url(#paint0_linear_7251_9568)"/>
<path d="M18.6804 3.00002C19.5639 3.00023 20.28 3.71684 20.28 4.60036V13.96C20.28 14.3133 19.9933 14.6 19.6399 14.6001C19.2866 14.6 19.0006 14.3133 19.0005 13.96V4.60036C19.0005 4.42376 18.857 4.28051 18.6804 4.28029H4.60034C4.42361 4.28029 4.28027 4.42363 4.28027 4.60036V18.6804C4.28049 18.8564 4.42386 19.0005 4.60107 19.0005H14.2002L14.2654 19.0034C14.5881 19.0362 14.8402 19.3086 14.8403 19.6399C14.8403 19.9713 14.5881 20.2444 14.2654 20.2771L14.2002 20.28H4.60107C3.71818 20.28 3.00022 19.5645 3 18.6804V4.60036C3 3.7167 3.71669 3.00002 4.60034 3.00002H18.6804Z" fill="url(#paint1_linear_7251_9568)"/>
<path d="M15.322 7.65309C15.3794 7.6531 15.4299 7.65617 15.4729 7.66335C15.5231 7.66336 15.5698 7.66716 15.6128 7.67433C15.706 7.6887 15.7887 7.73158 15.8604 7.80324C15.9035 7.83914 15.9431 7.89711 15.979 7.97609C15.9933 8.01905 16.0041 8.06203 16.0113 8.105C16.0256 8.14089 16.0363 8.18057 16.0435 8.22365C16.0507 8.27386 16.0545 8.32049 16.0545 8.36354C16.0617 8.40662 16.0647 8.4501 16.0647 8.49318C16.0647 8.54331 16.0616 8.59009 16.0545 8.63307V8.9341L15.9893 14.5239V14.6316C15.9893 14.6531 15.9862 14.6822 15.979 14.718C15.979 14.7467 15.9752 14.7828 15.968 14.8257C15.9537 14.8615 15.9391 14.9007 15.9248 14.9436C15.9177 14.9795 15.907 15.0192 15.8926 15.0623C15.8711 15.0982 15.8459 15.134 15.8172 15.1699C15.7956 15.1986 15.7673 15.2277 15.7315 15.2564C15.674 15.3138 15.5802 15.3535 15.451 15.375C15.2572 15.418 15.0739 15.3998 14.9016 15.3208C14.8156 15.2634 14.7544 15.1916 14.7185 15.1055C14.6971 15.0841 14.6864 15.0625 14.6863 15.041C14.6792 15.0268 14.6722 15.016 14.6651 15.0088C14.6579 15.0016 14.6503 14.9902 14.6431 14.9758C14.6288 14.9401 14.618 14.9039 14.6109 14.8682C14.6037 14.8252 14.6006 14.7822 14.6006 14.7393C14.5934 14.7034 14.5858 14.6675 14.5786 14.6316C14.5786 14.5958 14.5755 14.5598 14.5684 14.5239C14.5612 14.4665 14.5612 14.4054 14.5684 14.3408V14.179L14.5786 13.3286L14.5896 11.7451C14.5968 11.5155 14.6006 11.2787 14.6006 11.0347V9.59108C14.6006 9.39011 14.6075 9.16404 14.6219 8.91286V8.86964C14.629 8.79789 14.6328 8.72606 14.6328 8.65431C14.64 8.57546 14.6431 8.49659 14.6431 8.41774C14.6503 8.2885 14.6899 8.1481 14.7617 7.99733C14.812 7.89683 14.8876 7.81058 14.9881 7.73878C15.1029 7.68138 15.2144 7.65309 15.322 7.65309Z" fill="url(#paint2_linear_7251_9568)"/>
<path fill-rule="evenodd" clip-rule="evenodd" d="M10.0318 7.69557C10.1681 7.69558 10.2865 7.7139 10.387 7.74977C10.4659 7.78565 10.527 7.83226 10.5701 7.88966C10.6204 7.95428 10.6745 8.02982 10.732 8.11598C10.775 8.1877 10.814 8.27034 10.8499 8.36354C10.8642 8.4138 10.8825 8.45728 10.9041 8.49318C10.9255 8.52899 10.944 8.56815 10.9583 8.6111L11.0227 8.78395L13.2625 14.2976C13.2625 14.2976 13.2732 14.3299 13.2947 14.3943C13.3162 14.4589 13.3345 14.5238 13.3489 14.5884C13.3561 14.6315 13.3599 14.675 13.3599 14.718C13.367 14.7538 13.3701 14.7969 13.3701 14.8469C13.3701 14.933 13.3449 15.0118 13.2947 15.0835C13.2732 15.1193 13.2448 15.1554 13.209 15.1912C13.1731 15.2199 13.1296 15.2451 13.0794 15.2666C12.8999 15.3671 12.7098 15.403 12.5088 15.3743C12.4083 15.3456 12.3183 15.299 12.2393 15.2344C12.225 15.2202 12.2142 15.2131 12.2071 15.2131C12.1999 15.206 12.193 15.1952 12.1858 15.1809C12.1786 15.1737 12.171 15.1661 12.1638 15.1589C12.1567 15.1448 12.1459 15.1338 12.1316 15.1267C12.0959 15.091 12.0674 15.0587 12.0459 15.03C12.0244 14.9941 12.0023 14.9583 11.9807 14.9224C11.9664 14.8866 11.9487 14.8543 11.9273 14.8257C11.9129 14.7898 11.8946 14.7539 11.8731 14.718C11.8588 14.6895 11.8449 14.6641 11.8306 14.6426C11.8162 14.6139 11.8048 14.5849 11.7976 14.5562C11.769 14.4917 11.7514 14.4342 11.7442 14.384L11.5179 13.856C11.0225 13.856 10.5271 13.8598 10.0318 13.867C9.54354 13.867 9.05134 13.8632 8.55594 13.856L8.33035 14.384C8.31606 14.4126 8.3053 14.4412 8.29812 14.4697C8.29812 14.4985 8.29051 14.5274 8.27615 14.5562C8.2618 14.5849 8.24728 14.6139 8.23294 14.6426C8.22576 14.6641 8.21499 14.6895 8.20071 14.718C8.17924 14.7538 8.15773 14.7899 8.13626 14.8257C8.12192 14.8544 8.10353 14.8866 8.08206 14.9224C8.06771 14.9582 8.05009 14.9942 8.02859 15.03C8.00705 15.0588 7.97806 15.0908 7.94217 15.1267C7.92792 15.1339 7.9171 15.1447 7.90994 15.1589C7.90276 15.1661 7.89588 15.1737 7.8887 15.1809C7.88153 15.1952 7.8739 15.206 7.86673 15.2131C7.85955 15.2133 7.84866 15.2202 7.8345 15.2344C7.75561 15.2989 7.66609 15.3456 7.5657 15.3743C7.36467 15.403 7.17391 15.3671 6.99441 15.2666C6.9443 15.2451 6.90132 15.2198 6.86551 15.1912C6.82968 15.1553 6.80059 15.1194 6.77908 15.0835C6.72898 15.0118 6.70365 14.933 6.70364 14.8469V14.718C6.71082 14.675 6.71843 14.6315 6.72561 14.5884C6.73997 14.5238 6.75755 14.4589 6.77908 14.3943L6.81131 14.2976L9.05179 8.78395L9.11624 8.6111C9.13057 8.56813 9.14896 8.529 9.17044 8.49318C9.19198 8.45728 9.20955 8.4138 9.22391 8.36354C9.2598 8.27022 9.29949 8.18777 9.34256 8.11598C9.3641 8.0729 9.38928 8.03323 9.418 7.99733C9.44665 7.96151 9.47504 7.92548 9.50369 7.88966C9.54672 7.83229 9.60795 7.78565 9.6868 7.74977C9.78731 7.71387 9.90253 7.69557 10.0318 7.69557ZM9.95633 10.4312C9.92761 10.4958 9.89862 10.5606 9.8699 10.6253C9.76226 10.8549 9.65836 11.081 9.55789 11.3035C9.46455 11.5261 9.37144 11.742 9.2781 11.9502L9.08401 12.4241H10.9905L10.7964 11.9502C10.7031 11.742 10.6062 11.5261 10.5056 11.3035C10.4123 11.081 10.3116 10.855 10.2039 10.6253C10.1752 10.5606 10.1469 10.4958 10.1182 10.4312C10.0895 10.3594 10.0605 10.2914 10.0318 10.2268C10.0102 10.2914 9.98501 10.3595 9.95633 10.4312Z" fill="url(#paint3_linear_7251_9568)"/>
<defs>
<linearGradient id="paint0_linear_7251_9568" x1="11.8831" y1="3.00002" x2="11.8831" y2="21.077" gradientUnits="userSpaceOnUse">
<stop stop-color="#ABA2FF"/>
<stop offset="1" stop-color="#03D4EF"/>
</linearGradient>
<linearGradient id="paint1_linear_7251_9568" x1="11.8831" y1="3.00002" x2="11.8831" y2="21.077" gradientUnits="userSpaceOnUse">
<stop stop-color="#ABA2FF"/>
<stop offset="1" stop-color="#03D4EF"/>
</linearGradient>
<linearGradient id="paint2_linear_7251_9568" x1="11.8831" y1="3.00002" x2="11.8831" y2="21.077" gradientUnits="userSpaceOnUse">
<stop stop-color="#ABA2FF"/>
<stop offset="1" stop-color="#03D4EF"/>
</linearGradient>
<linearGradient id="paint3_linear_7251_9568" x1="11.8831" y1="3.00002" x2="11.8831" y2="21.077" gradientUnits="userSpaceOnUse">
<stop stop-color="#ABA2FF"/>
<stop offset="1" stop-color="#03D4EF"/>
</linearGradient>
</defs>
</svg>
