<svg width="24" height="24" viewBox="0 0 24 24" fill="none" xmlns="http://www.w3.org/2000/svg">
<path fill-rule="evenodd" clip-rule="evenodd" d="M8.04051 8.42859C8.31777 6.49013 9.98487 5 12 5C14.0151 5 15.6822 6.49013 15.9595 8.42859H8.04051ZM6.02686 8.42859C6.3146 5.38291 8.87902 3 12 3C15.121 3 17.6854 5.38291 17.9731 8.42859H20V19.8572H4V8.42859H6.02686ZM13.1433 14.98C13.8265 14.5848 14.2861 13.8461 14.2861 13.0001C14.2861 11.7377 13.2628 10.7144 12.0004 10.7144C10.7381 10.7144 9.7147 11.7377 9.7147 13.0001C9.7147 13.8461 10.1744 14.5848 10.8576 14.98V17.5715H13.1433V14.98Z" fill="black"/>
</svg>
