<svg width="150" height="150" viewBox="0 0 150 150" fill="none" xmlns="http://www.w3.org/2000/svg">
<path d="M120.5 38C124.918 38 128.5 41.5817 128.5 46V106C128.5 106.165 128.477 106.324 128.439 106.477L135.141 109.594C135.911 109.952 135.911 111.048 135.141 111.406L96.5117 129.373C95.7258 129.738 94.9099 129.007 95.1211 128.218L95.1768 128.06L102.108 112.5H30C25.5817 112.5 22 108.918 22 104.5V46C22 41.5817 25.5817 38 30 38H120.5ZM106.473 108.465L106.487 108.5H115C116.105 108.5 117 109.395 117 110.5C117 111.605 116.105 112.5 115 112.5H106.487L106.473 112.535L102.094 122.365L127.606 110.5L102.094 98.6338L106.473 108.465ZM26 104.5C26 106.709 27.7909 108.5 30 108.5H102.108L95.1768 92.9404L95.1211 92.7822C94.9099 91.9934 95.7258 91.2617 96.5117 91.627L124.5 104.645V50.6152L76.5625 80.6943L75.5049 81.3574L74.4443 80.6992L26 50.5977V104.5ZM30 42C27.8281 42 26.0609 43.731 26.002 45.8887L75.4951 76.6416L124.497 45.8945C124.441 43.7342 122.674 42 120.5 42H30Z" fill="url(#paint0_linear_5101_1062)"/>
<defs>
<linearGradient id="paint0_linear_5101_1062" x1="19" y1="41" x2="123" y2="123" gradientUnits="userSpaceOnUse">
<stop stop-color="#ABA2FF"/>
<stop offset="1" stop-color="#03D4EF"/>
</linearGradient>
</defs>
</svg>
