<svg width="72" height="72" viewBox="0 0 72 72" fill="none" xmlns="http://www.w3.org/2000/svg">
<path fill-rule="evenodd" clip-rule="evenodd" d="M36 21.7986V8.00141C36.153 8.00047 36.3063 8 36.46 8C48.9085 8 59 11.0892 59 14.9C59 18.7108 48.9085 21.8 36.46 21.8C36.3063 21.8 36.153 21.7995 36 21.7986ZM36 35.5183V23.6387C36.153 23.6396 36.3063 23.6401 36.46 23.6401C46.2908 23.6401 54.812 21.7031 59.0001 18.8737V30.5184C57.8469 31.4208 56.1642 32.275 54.0231 33.0147C49.5752 34.5512 43.3656 35.5198 36.4598 35.5198C36.3062 35.5198 36.1529 35.5193 36 35.5183ZM36 50.2383V37.5184C36.153 37.5193 36.3063 37.5198 36.4598 37.5198C43.5269 37.5198 49.9673 36.5317 54.6762 34.9051C56.3249 34.3355 57.7882 33.6785 59.0001 32.9406V45.2384C57.8469 46.1408 56.1642 46.995 54.0231 47.7347C49.5752 49.2712 43.3656 50.2398 36.4598 50.2398C36.3062 50.2398 36.1529 50.2393 36 50.2383ZM36 64.1187V52.2384C36.153 52.2393 36.3063 52.2398 36.4598 52.2398C43.5269 52.2398 49.9673 51.2517 54.6762 49.6251C56.3249 49.0555 57.7882 48.3985 59.0001 47.6606V56.7601H58.9508C58.9835 56.9121 59.0001 57.0655 59.0001 57.2201C59.0001 61.0309 48.9086 64.1201 36.4601 64.1201C36.3064 64.1201 36.153 64.1196 36 64.1187Z" fill="#009BAF"/>
<path fill-rule="evenodd" clip-rule="evenodd" d="M36 21.7986V8.00141C35.847 8.00047 35.6937 8 35.54 8C23.0915 8 13 11.0892 13 14.9C13 18.7108 23.0915 21.8 35.54 21.8C35.6937 21.8 35.847 21.7995 36 21.7986ZM36 35.5183V23.6387C35.847 23.6396 35.6937 23.6401 35.54 23.6401C25.7092 23.6401 17.188 21.7031 12.9999 18.8737V30.5184C14.1531 31.4208 15.8358 32.275 17.9769 33.0147C22.4248 34.5512 28.6344 35.5198 35.5402 35.5198C35.6938 35.5198 35.8471 35.5193 36 35.5183ZM36 50.2383V37.5184C35.847 37.5193 35.6937 37.5198 35.5402 37.5198C28.4731 37.5198 22.0327 36.5317 17.3238 34.9051C15.6751 34.3355 14.2118 33.6785 12.9999 32.9406V45.2384C14.1531 46.1408 15.8358 46.995 17.9769 47.7347C22.4248 49.2712 28.6344 50.2398 35.5402 50.2398C35.6938 50.2398 35.8471 50.2393 36 50.2383ZM36 64.1187V52.2384C35.847 52.2393 35.6937 52.2398 35.5402 52.2398C28.4731 52.2398 22.0327 51.2517 17.3238 49.6251C15.6751 49.0555 14.2118 48.3985 12.9999 47.6606V56.7601H13.0492C13.0165 56.9121 12.9999 57.0655 12.9999 57.2201C12.9999 61.0309 23.0914 64.1201 35.5399 64.1201C35.6936 64.1201 35.847 64.1196 36 64.1187Z" fill="#69747F"/>
</svg>
