<svg width="72" height="72" viewBox="0 0 72 72" fill="none" xmlns="http://www.w3.org/2000/svg">
<path fill-rule="evenodd" clip-rule="evenodd" d="M6 15.3438L24.75 11.5938L29.4375 13V59.4062H6V15.3438ZM31.3125 13.4688L36 14.875V59.4063H31.3125V13.4688ZM42.5625 16.6926L37.875 15.3438V59.4062H42.5625V16.6926Z" fill="#69747F"/>
<path fill-rule="evenodd" clip-rule="evenodd" d="M44.4375 30.3438L53.3438 28.9375L66 31.0359V36.227L53.3438 34.0938L44.4375 35.2043V30.3438ZM53.3438 36.227L66 38.3125V41.852L53.3438 39.7188L44.4375 40.8293V37.375L53.3438 36.227ZM44.4375 43V47.3918L53.3438 46.2812L66 48.4145V43.9375L53.3438 41.852L44.4375 43ZM44.4375 53.0168V49.5625L53.3438 48.4145L66 50.5V54.0395L53.3438 51.9062L44.4375 53.0168ZM44.4375 55.1875V59.4062H66V56.125L53.3438 54.0395L44.4375 55.1875Z" fill="#009BAF"/>
</svg>
