<svg width="72" height="72" viewBox="0 0 72 72" fill="none" xmlns="http://www.w3.org/2000/svg">
<path fill-rule="evenodd" clip-rule="evenodd" d="M9.09306 32.9823L19.9184 26.7323L23.1059 32.2532C25.3968 29.6459 28.756 28.0002 32.4995 28.0002H46.3403C46.4671 26.0061 46.027 23.9538 44.953 22.0936C42.0535 17.0715 35.6318 15.3508 30.6097 18.2503L8.09306 31.2503C3.07099 34.1498 1.3503 40.5715 4.2498 45.5936C7.14929 50.6156 13.571 52.3363 18.5931 49.4368L22.0875 47.4193C21.7191 46.866 21.3936 46.2816 21.1157 45.6709L17.5931 47.7048C13.5276 50.052 8.32906 48.659 5.98185 44.5936C3.63464 40.5281 5.02757 35.3295 9.09306 32.9823Z" fill="#009BAF"/>
<path fill-rule="evenodd" clip-rule="evenodd" d="M45 32H32.5C27.8056 32 24 35.8056 24 40.5C24 45.1944 27.8056 49 32.5 49H45V32ZM22 40.5C22 34.701 26.701 30 32.5 30H58.5C64.299 30 69 34.701 69 40.5C69 46.299 64.299 51 58.5 51H32.5C26.701 51 22 46.299 22 40.5Z" fill="#69747F"/>
</svg>
