<svg width="157" height="41" viewBox="0 0 157 41" fill="none" xmlns="http://www.w3.org/2000/svg">
<path d="M31.5944 11.8042C31.4474 10.9975 31.2002 10.27 30.9062 9.62858C30.8394 9.4831 30.7994 9.39713 30.7994 9.39713C30.5856 8.96068 30.3584 8.57051 30.1313 8.22003C30.1313 8.22003 30.1313 8.22003 30.1313 8.21342C29.6436 7.38019 28.9688 6.64616 28.2072 5.9981C27.3721 5.1781 26.3766 4.44406 25.2008 3.86213C23.9448 3.24051 22.7556 2.8239 21.6533 2.53955C21.5731 2.51309 21.5263 2.49987 21.5263 2.49987C17.8118 1.57406 15.2062 2.2089 15.2062 2.2089C8.90621 3.24713 9.55425 11.1694 9.64778 15.7455C10.6365 15.772 11.8458 15.9042 13.202 16.2415C13.202 16.2415 13.2488 16.2481 13.3289 16.2745C14.4313 16.5589 15.6271 16.9755 16.8765 17.5971C18.0523 18.1791 19.0477 18.9131 19.8828 19.7331C20.6378 20.3812 21.3192 21.1152 21.8069 21.9484C21.8069 21.9484 21.8069 21.9484 21.8069 21.955C22.308 22.7155 22.8024 23.6876 23.1097 24.8383C29.216 22.1997 31.0599 18.3973 31.5877 15.9373C31.5877 15.9373 31.5877 15.9373 31.5877 15.9307C31.5944 15.9042 31.6011 15.8778 31.6011 15.8513C31.6011 15.8381 31.6011 15.8183 31.6077 15.805C31.9485 14.3634 31.8282 12.9483 31.5877 11.8175L31.5944 11.8042Z" fill="#41FFC9"/>
<path d="M21.7999 21.9418C21.3122 21.1085 20.6375 20.3745 19.8758 19.7264C19.0407 18.9064 18.0453 18.1724 16.8695 17.5905C15.6135 16.9689 14.4243 16.5523 13.3219 16.2679C13.2418 16.2414 13.195 16.2282 13.195 16.2282C11.8388 15.891 10.6295 15.7653 9.64077 15.7323C7.9238 15.6793 6.8749 15.9373 6.8749 15.9373C0.214095 17.035 1.32312 25.8302 1.32312 30.2277C1.32312 34.3343 1.81082 36.0405 2.77286 37.1448C2.77286 37.1448 3.70818 38.8377 7.73673 39.0031C8.39814 39.056 9.12635 39.0626 9.92137 39.0031C11.4379 38.9766 13.0413 38.7385 14.5712 38.1698C14.598 38.1698 14.618 38.1566 14.6447 38.15H14.618C14.8118 38.0772 15.0055 38.0045 15.1992 37.9252C16.3951 37.4027 17.3906 36.8406 18.2457 36.2521C18.2457 36.2521 20.3168 35.1147 21.8133 32.6084V32.6216C21.8534 32.5555 21.8868 32.4893 21.9269 32.4232C21.987 32.324 22.0404 32.2182 22.0939 32.119C23.6038 29.2755 23.6305 26.7956 23.1027 24.8316C22.7954 23.6876 22.301 22.7155 21.7999 21.9484C21.7999 21.9484 21.7999 21.9484 21.7999 21.9418Z" fill="#07BBD3"/>
<path d="M40.7998 12.2007H47.0598C50.9413 12.2007 53.9076 13.3117 53.9076 16.8033C53.9076 18.5226 52.9389 20.2949 51.3288 20.8504V20.976C53.3732 21.4587 54.8764 22.8739 54.8764 25.4C54.8764 29.1694 51.7096 30.9152 47.5475 30.9152H40.8065V12.2073L40.7998 12.2007ZM46.7792 19.8121C49.1776 19.8121 50.2265 18.8533 50.2265 17.3587C50.2265 15.7121 49.1041 15.0575 46.8259 15.0575H44.5745V19.8121H46.7725H46.7792ZM47.2134 28.0254C49.7922 28.0254 51.1952 27.1128 51.1952 25.1686C51.1952 23.35 49.819 22.5896 47.2134 22.5896H44.5812V28.0254H47.2134Z" fill="white"/>
<path d="M61.5439 12.2007H65.3253V30.9086H61.5439V12.2007Z" fill="white"/>
<path d="M72.373 21.4788C72.373 15.3883 75.8204 11.8438 80.831 11.8438C85.8416 11.8438 89.289 15.4081 89.289 21.4788C89.289 27.5494 85.8416 31.2658 80.831 31.2658C75.8204 31.2658 72.373 27.5494 72.373 21.4788ZM85.4207 21.4788C85.4207 17.4581 83.6303 15.0576 80.8243 15.0576C78.0184 15.0576 76.2279 17.4581 76.2279 21.4788C76.2279 25.4994 78.0184 28.0255 80.8243 28.0255C83.6303 28.0255 85.4207 25.4729 85.4207 21.4788Z" fill="white"/>
<path d="M96.3309 12.2007H101.515C107.287 12.2007 110.862 15.1567 110.862 21.4786C110.862 27.8005 107.287 30.9086 101.716 30.9086H96.3242V12.2007H96.3309ZM101.281 27.8997C104.809 27.8997 107 26.0283 107 21.4786C107 16.9289 104.802 15.1831 101.281 15.1831H100.106V27.8997H101.281Z" fill="white"/>
<path d="M117.91 12.2007H121.765L127.257 22.1597L129.147 26.2068H129.274C129.067 24.2626 128.786 21.7828 128.786 19.66V12.2007H132.361V30.9086H128.526L123.061 20.8967L121.144 16.876H121.017C121.197 18.8996 121.478 21.2471 121.478 23.4029V30.9152H117.903V12.2073L117.91 12.2007Z" fill="white"/>
<path d="M140.385 12.2007H145.569C151.341 12.2007 154.915 15.1567 154.915 21.4786C154.915 27.8005 151.341 30.9086 145.769 30.9086H140.378V12.2007H140.385ZM145.342 27.8997C148.869 27.8997 151.061 26.0283 151.061 21.4786C151.061 16.9289 148.863 15.1831 145.342 15.1831H144.166V27.8997H145.342Z" fill="white"/>
</svg>
