<svg width="247" height="64" viewBox="0 0 247 64" fill="none" xmlns="http://www.w3.org/2000/svg">
<path d="M49.7054 18.4257C49.4741 17.1663 49.0852 16.0309 48.6228 15.0296C48.5177 14.8025 48.4546 14.6683 48.4546 14.6683C48.1183 13.987 47.7609 13.378 47.4035 12.8309C47.4035 12.8309 47.4035 12.8309 47.4035 12.8205C46.6363 11.5199 45.5747 10.3741 44.3765 9.36247C43.0627 8.08247 41.4966 6.93667 39.6467 6.02828C37.6707 5.05796 35.7998 4.40764 34.0655 3.96377C33.9394 3.92248 33.8658 3.90183 33.8658 3.90183C28.0219 2.45667 23.9228 3.44764 23.9228 3.44764C14.0113 5.06828 15.0308 17.4347 15.1779 24.578C16.7335 24.6192 18.6359 24.8257 20.7696 25.3522C20.7696 25.3522 20.8432 25.3625 20.9693 25.4038C22.7036 25.8476 24.585 26.498 26.5504 27.4683C28.4003 28.3767 29.9664 29.5225 31.2802 30.8025C32.4679 31.8141 33.54 32.9599 34.3073 34.2605C34.3073 34.2605 34.3073 34.2605 34.3073 34.2709C35.0956 35.458 35.8734 36.9754 36.3569 38.7715C45.9636 34.6528 48.8645 28.7173 49.6949 24.8773C49.6949 24.8773 49.6949 24.8773 49.6949 24.867C49.7054 24.8257 49.7159 24.7844 49.7159 24.7431C49.7159 24.7225 49.7159 24.6915 49.7264 24.6709C50.2624 22.4205 50.0732 20.2115 49.6949 18.4463L49.7054 18.4257Z" fill="#41FFC9"/>
<path d="M34.2966 34.2505C33.5294 32.9498 32.4678 31.804 31.2696 30.7924C29.9558 29.5124 28.3897 28.3666 26.5398 27.4582C24.5638 26.4879 22.6929 25.8376 20.9586 25.3937C20.8325 25.3524 20.7589 25.3317 20.7589 25.3317C18.6253 24.8053 16.7229 24.6092 15.1673 24.5576C12.4661 24.475 10.8159 24.8776 10.8159 24.8776C0.336774 26.5911 2.08154 40.3201 2.08154 47.1846C2.08154 53.595 2.84882 56.2582 4.36235 57.9821C4.36235 57.9821 5.83384 60.6246 12.1718 60.8827C13.2123 60.9653 14.358 60.9756 15.6087 60.8827C17.9946 60.8414 20.5172 60.4698 22.9241 59.5821C22.9662 59.5821 22.9977 59.5614 23.0398 59.5511H22.9977C23.3025 59.4376 23.6073 59.324 23.9121 59.2001C25.7935 58.3846 27.3596 57.5072 28.705 56.5885C28.705 56.5885 31.9633 54.813 34.3177 50.9008V50.9214C34.3807 50.8182 34.4333 50.715 34.4963 50.6117C34.5909 50.4569 34.675 50.2917 34.7591 50.1369C37.1345 45.6982 37.1766 41.8272 36.3462 38.7614C35.8627 36.9756 35.0849 35.4582 34.2966 34.2608C34.2966 34.2608 34.2966 34.2608 34.2966 34.2505Z" fill="#07BBD3"/>
<path d="M64.1885 19.0454H74.0369C80.1436 19.0454 84.8104 20.7796 84.8104 26.2299C84.8104 28.9138 83.2863 31.6802 80.7532 32.5473V32.7435C83.9695 33.497 86.3344 35.7061 86.3344 39.6493C86.3344 45.5332 81.3523 48.2583 74.8042 48.2583H64.199V19.0557L64.1885 19.0454ZM73.5955 30.9267C77.3688 30.9267 79.019 29.4299 79.019 27.097C79.019 24.5267 77.2532 23.5048 73.6691 23.5048H70.127V30.9267H73.585H73.5955ZM74.2787 43.7473C78.3358 43.7473 80.543 42.3228 80.543 39.288C80.543 36.4493 78.3778 35.2622 74.2787 35.2622H70.1375V43.7473H74.2787Z" fill="white"/>
<path d="M96.8242 19.0454H102.773V48.248H96.8242V19.0454Z" fill="white"/>
<path d="M113.861 33.5278C113.861 24.0207 119.285 18.4878 127.168 18.4878C135.051 18.4878 140.474 24.0517 140.474 33.5278C140.474 43.0039 135.051 48.8052 127.168 48.8052C119.285 48.8052 113.861 43.0039 113.861 33.5278ZM134.389 33.5278C134.389 27.2517 131.572 23.5046 127.157 23.5046C122.743 23.5046 119.926 27.2517 119.926 33.5278C119.926 39.8039 122.743 43.7472 127.157 43.7472C131.572 43.7472 134.389 39.7626 134.389 33.5278Z" fill="white"/>
<path d="M151.553 19.0454H159.709C168.79 19.0454 174.413 23.6596 174.413 33.528C174.413 43.3964 168.79 48.248 160.024 48.248H151.542V19.0454H151.553ZM159.341 43.5512C164.891 43.5512 168.338 40.6299 168.338 33.528C168.338 26.4261 164.88 23.7009 159.341 23.7009H157.491V43.5512H159.341Z" fill="white"/>
<path d="M185.503 19.0454H191.567L200.207 34.5912L203.182 40.9086H203.381C203.055 37.8738 202.614 34.0028 202.614 30.6893V19.0454H208.237V48.248H202.204L193.606 32.6196L190.59 26.3435H190.39C190.674 29.5022 191.115 33.1667 191.115 36.5319V48.2583H185.492V19.0557L185.503 19.0454Z" fill="white"/>
<path d="M220.86 19.0454H229.016C238.098 19.0454 243.721 23.6596 243.721 33.528C243.721 43.3964 238.098 48.248 229.332 48.248H220.85V19.0454H220.86ZM228.659 43.5512C234.209 43.5512 237.656 40.6299 237.656 33.528C237.656 26.4261 234.198 23.7009 228.659 23.7009H226.809V43.5512H228.659Z" fill="white"/>
</svg>
