<svg width="24" height="24" viewBox="0 0 24 24" fill="none" xmlns="http://www.w3.org/2000/svg">
<path d="M11.7767 20.7333L20.7416 12.9544C20.8227 12.8841 20.8877 12.7972 20.9323 12.6995C20.9769 12.6019 21 12.4958 21 12.3884C21 12.2811 20.9769 12.175 20.9323 12.0773C20.8877 11.9797 20.8227 11.8927 20.7416 11.8224L11.7767 4.04584C11.7497 4.02235 11.7165 4.00711 11.6811 4.00195C11.6456 3.99679 11.6095 4.00192 11.5769 4.01674C11.5443 4.03156 11.5166 4.05544 11.4972 4.08553C11.4778 4.11562 11.4674 4.15066 11.4674 4.18647L11.4674 6.08491C11.4674 6.19272 11.5142 6.29584 11.5963 6.3685L17.5095 11.499L4.31188 11.499C4.20876 11.499 4.12438 11.5833 4.12438 11.6865L4.12438 13.0927C4.12438 13.1958 4.20876 13.2802 4.31188 13.2802L17.5095 13.2802L11.5963 18.4107C11.5142 18.481 11.4674 18.5841 11.4674 18.6943L11.4674 20.5927C11.4674 20.7521 11.6549 20.8388 11.7767 20.7333Z" fill="white"/>
</svg>
