<svg width="24" height="24" viewBox="0 0 24 24" fill="none" xmlns="http://www.w3.org/2000/svg">
<path d="M14.291 14.1761H13.7038L13.4957 13.9754C14.2493 13.1013 14.6635 11.9854 14.6627 10.8313C14.6627 9.87579 14.3793 8.9417 13.8484 8.14719C13.3176 7.35268 12.563 6.73344 11.6802 6.36777C10.7974 6.00209 9.82597 5.90642 8.88879 6.09283C7.9516 6.27925 7.09074 6.73939 6.41507 7.41507C5.73939 8.09074 5.27925 8.9516 5.09283 9.88879C4.90642 10.826 5.00209 11.7974 5.36777 12.6802C5.73344 13.563 6.35268 14.3176 7.14719 14.8484C7.9417 15.3793 8.87579 15.6627 9.83133 15.6627C11.028 15.6627 12.1281 15.2241 12.9754 14.4957L13.1761 14.7038V15.291L16.8925 19L18 17.8925L14.291 14.1761ZM9.83133 14.1761C7.98056 14.1761 6.48657 12.6821 6.48657 10.8313C6.48657 8.98056 7.98056 7.48657 9.83133 7.48657C11.6821 7.48657 13.1761 8.98056 13.1761 10.8313C13.1761 12.6821 11.6821 14.1761 9.83133 14.1761Z" fill="#69747F"/>
</svg>
