<svg width="13" height="13" viewBox="0 0 13 13" fill="none" xmlns="http://www.w3.org/2000/svg">
<g clip-path="url(#clip0_94_11463)">
<path d="M6.50195 4.63019L8.25835 6.38658L8.26671 6.29458C8.26671 5.37177 7.51677 4.62183 6.59395 4.62183L6.50195 4.63019Z" fill="#ABABAB"/>
<path d="M6.59401 3.50675C8.13295 3.50675 9.38195 4.75575 9.38195 6.29468C9.38195 6.65432 9.30947 6.99724 9.18402 7.31227L10.815 8.9432C11.6569 8.24065 12.3204 7.33179 12.7303 6.29468C11.7629 3.84689 9.38475 2.11279 6.59404 2.11279C5.81341 2.11279 5.06626 2.25218 4.37207 2.50309L5.57646 3.70468C5.89146 3.58202 6.23437 3.50675 6.59401 3.50675Z" fill="#ABABAB"/>
<path d="M1.01803 1.98729L2.28932 3.25858L2.54303 3.51229C1.62301 4.23158 0.895366 5.18784 0.460449 6.29463C1.42508 8.74242 3.80596 10.4765 6.59389 10.4765C7.45816 10.4765 8.28338 10.3092 9.03891 10.0054L9.2759 10.2423L10.9013 11.8705L11.6122 11.1624L1.72895 1.27637L1.01803 1.98729ZM4.10149 5.06796L4.96296 5.92942C4.93787 6.04931 4.92114 6.16918 4.92114 6.29463C4.92114 7.21745 5.67108 7.96739 6.59389 7.96739C6.71935 7.96739 6.83924 7.95066 6.95633 7.92557L7.8178 8.78704C7.447 8.97104 7.0344 9.08257 6.59389 9.08257C5.05496 9.08257 3.80596 7.83357 3.80596 6.29463C3.80596 5.85415 3.91749 5.44153 4.10149 5.06796Z" fill="#ABABAB"/>
</g>
<defs>
<clipPath id="clip0_94_11463">
<rect width="12.2697" height="12.2697" fill="white" transform="translate(0.460449 0.438477)"/>
</clipPath>
</defs>
</svg>
