<svg width="34" height="34" viewBox="0 0 34 34" fill="none" xmlns="http://www.w3.org/2000/svg">
<g clip-path="url(#clip0_94_11483)">
<path d="M30.8328 1.09534H3.77377C3.15982 1.08909 2.56847 1.32665 2.12947 1.75589C1.69047 2.18514 1.43968 2.77101 1.43213 3.38494V30.5532C1.44104 31.1662 1.69243 31.7508 2.13128 32.1789C2.57014 32.607 3.16071 32.8439 3.77377 32.8376H30.8328C31.4467 32.8425 32.0377 32.6041 32.4765 32.1746C32.9153 31.7451 33.1662 31.1594 33.1744 30.5454V3.37714C33.1635 2.765 32.9113 2.18193 32.4729 1.75465C32.0344 1.32738 31.445 1.09044 30.8328 1.09534Z" fill="#0076B2"/>
<path d="M6.13101 12.9933H10.8429V28.1541H6.13101V12.9933ZM8.48827 5.448C9.0287 5.448 9.55699 5.60829 10.0063 5.90859C10.4556 6.20889 10.8058 6.63571 11.0125 7.13506C11.2192 7.6344 11.2731 8.18383 11.1675 8.71384C11.0619 9.24385 10.8014 9.73063 10.4191 10.1126C10.0368 10.4946 9.54975 10.7545 9.01964 10.8597C8.48953 10.9648 7.94015 10.9103 7.441 10.7031C6.94186 10.496 6.51537 10.1454 6.21549 9.69579C5.91562 9.24619 5.75583 8.71775 5.75635 8.17731C5.75704 7.45321 6.04517 6.75901 6.55743 6.24724C7.06969 5.73547 7.76417 5.448 8.48827 5.448ZM13.7986 12.9933H18.3154V15.0748H18.3778C19.0074 13.8831 20.5425 12.6264 22.8347 12.6264C27.6065 12.616 28.4911 15.7564 28.4911 19.8283V28.1541H23.7792V20.778C23.7792 19.0217 23.748 16.7607 21.3309 16.7607C18.9138 16.7607 18.5027 18.6757 18.5027 20.6635V28.1541H13.7986V12.9933Z" fill="white"/>
</g>
<defs>
<clipPath id="clip0_94_11483">
<rect width="33.3034" height="33.3034" fill="white" transform="translate(0.651367 0.314697)"/>
</clipPath>
</defs>
</svg>
