<svg width="24" height="24" viewBox="0 0 24 24" fill="none" xmlns="http://www.w3.org/2000/svg">
<path fill-rule="evenodd" clip-rule="evenodd" d="M11.9999 6.75C8.56639 6.75 5.59489 8.9025 4.50522 11.8787C4.47628 11.957 4.47628 12.043 4.50522 12.1213C5.59372 15.0975 8.56639 17.25 11.9999 17.25C15.4334 17.25 18.4049 15.0975 19.4946 12.1213C19.5235 12.043 19.5235 11.957 19.4946 11.8787C18.4061 8.9025 15.4334 6.75 11.9999 6.75ZM2.86139 11.2767C4.20655 7.604 7.83839 5 11.9999 5C16.1602 5 19.7944 7.604 21.1384 11.2767C21.3087 11.7433 21.3087 12.2567 21.1384 12.7233C19.7932 16.396 16.1602 19 11.9999 19C7.83839 19 4.20539 16.396 2.86139 12.7233C2.69004 12.2563 2.69004 11.7437 2.86139 11.2767ZM11.9999 10.25C11.5358 10.25 11.0906 10.4344 10.7624 10.7626C10.4343 11.0908 10.2499 11.5359 10.2499 12C10.2499 12.4641 10.4343 12.9092 10.7624 13.2374C11.0906 13.5656 11.5358 13.75 11.9999 13.75C12.464 13.75 12.9091 13.5656 13.2373 13.2374C13.5655 12.9092 13.7499 12.4641 13.7499 12C13.7499 11.5359 13.5655 11.0908 13.2373 10.7626C12.9091 10.4344 12.464 10.25 11.9999 10.25ZM8.49989 12C8.49989 11.0717 8.86864 10.1815 9.52501 9.52513C10.1814 8.86875 11.0716 8.5 11.9999 8.5C12.9281 8.5 13.8184 8.86875 14.4748 9.52513C15.1311 10.1815 15.4999 11.0717 15.4999 12C15.4999 12.9283 15.1311 13.8185 14.4748 14.4749C13.8184 15.1313 12.9281 15.5 11.9999 15.5C11.0716 15.5 10.1814 15.1313 9.52501 14.4749C8.86864 13.8185 8.49989 12.9283 8.49989 12Z" fill="#827F7F"/>
</svg>
