<svg width="72" height="72" viewBox="0 0 72 72" fill="none" xmlns="http://www.w3.org/2000/svg">
<rect x="19" y="59" width="34" height="3" fill="#69747F"/>
<path d="M28.9444 53H44.0556L45 58H28L28.9444 53Z" fill="#69747F"/>
<path fill-rule="evenodd" clip-rule="evenodd" d="M11 11C8.23858 11 6 13.2386 6 16V46C6 48.7614 8.23858 51 11 51H62C64.7614 51 67 48.7614 67 46V16C67 13.2386 64.7614 11 62 11H11ZM64 16H9V46H64V16Z" fill="#69747F"/>
<path d="M17.7173 35V27.7273H20.5014C21.027 27.7273 21.4638 27.8101 21.8118 27.9759C22.1622 28.1392 22.4238 28.3629 22.5966 28.647C22.7718 28.9311 22.8594 29.2531 22.8594 29.6129C22.8594 29.9089 22.8026 30.1622 22.6889 30.3729C22.5753 30.5812 22.4226 30.7505 22.2308 30.8807C22.0391 31.0109 21.8248 31.1044 21.5881 31.1612V31.2322C21.8461 31.2464 22.0935 31.3258 22.3303 31.4702C22.5694 31.6122 22.7647 31.8134 22.9162 32.0739C23.0677 32.3343 23.1435 32.6491 23.1435 33.0185C23.1435 33.3949 23.0523 33.7334 22.87 34.0341C22.6877 34.3324 22.4131 34.5679 22.0462 34.7408C21.6792 34.9136 21.2176 35 20.6612 35H17.7173ZM19.0348 33.8991H20.4517C20.9299 33.8991 21.2744 33.808 21.4851 33.6257C21.6982 33.4411 21.8047 33.2043 21.8047 32.9155C21.8047 32.7 21.7514 32.5059 21.6449 32.3331C21.5384 32.1579 21.3868 32.0206 21.1903 31.9212C20.9938 31.8194 20.7595 31.7685 20.4872 31.7685H19.0348V33.8991ZM19.0348 30.8203H20.3381C20.5653 30.8203 20.7701 30.7789 20.9524 30.696C21.1347 30.6108 21.2779 30.4912 21.3821 30.3374C21.4886 30.1811 21.5419 29.9964 21.5419 29.7834C21.5419 29.5017 21.4425 29.2696 21.2436 29.0874C21.0471 28.9051 20.7547 28.8139 20.3665 28.8139H19.0348V30.8203ZM25.6071 27.7273V35H24.2896V27.7273H25.6071ZM33.5323 31.3636C33.5323 32.1473 33.3855 32.8184 33.092 33.3771C32.8008 33.9335 32.4031 34.3596 31.8988 34.6555C31.3969 34.9515 30.8275 35.0994 30.1907 35.0994C29.5539 35.0994 28.9833 34.9515 28.479 34.6555C27.9772 34.3572 27.5794 33.9299 27.2859 33.3736C26.9947 32.8149 26.8491 32.1449 26.8491 31.3636C26.8491 30.58 26.9947 29.91 27.2859 29.3537C27.5794 28.795 27.9772 28.3677 28.479 28.0717C28.9833 27.7758 29.5539 27.6278 30.1907 27.6278C30.8275 27.6278 31.3969 27.7758 31.8988 28.0717C32.4031 28.3677 32.8008 28.795 33.092 29.3537C33.3855 29.91 33.5323 30.58 33.5323 31.3636ZM32.2077 31.3636C32.2077 30.812 32.1213 30.3468 31.9485 29.968C31.7781 29.5869 31.5413 29.2992 31.2383 29.1051C30.9353 28.9086 30.5861 28.8104 30.1907 28.8104C29.7953 28.8104 29.4461 28.9086 29.1431 29.1051C28.8401 29.2992 28.6022 29.5869 28.4293 29.968C28.2589 30.3468 28.1737 30.812 28.1737 31.3636C28.1737 31.9152 28.2589 32.3816 28.4293 32.7628C28.6022 33.1416 28.8401 33.4292 29.1431 33.6257C29.4461 33.8198 29.7953 33.9169 30.1907 33.9169C30.5861 33.9169 30.9353 33.8198 31.2383 33.6257C31.5413 33.4292 31.7781 33.1416 31.9485 32.7628C32.1213 32.3816 32.2077 31.9152 32.2077 31.3636ZM37.2424 35H34.7779V27.7273H37.2921C38.0141 27.7273 38.6344 27.8729 39.1529 28.1641C39.6737 28.4529 40.0738 28.8684 40.3532 29.4105C40.6325 29.9527 40.7722 30.6013 40.7722 31.3565C40.7722 32.1141 40.6313 32.7652 40.3496 33.3097C40.0703 33.8542 39.6666 34.272 39.1387 34.5632C38.6131 34.8544 37.981 35 37.2424 35ZM36.0953 33.8601H37.1784C37.6851 33.8601 38.1077 33.7678 38.4462 33.5831C38.7847 33.3961 39.0392 33.1179 39.2097 32.7486C39.3801 32.3769 39.4654 31.9129 39.4654 31.3565C39.4654 30.8002 39.3801 30.3385 39.2097 29.9716C39.0392 29.6023 38.7871 29.3265 38.4533 29.1442C38.1219 28.9595 37.7099 28.8672 37.2175 28.8672H36.0953V33.8601ZM48.0005 27.7273V35H46.8287L43.4018 30.0462H43.3414V35H42.024V27.7273H43.2029L46.6262 32.6847H46.6902V27.7273H48.0005ZM51.9006 35H49.4361V27.7273H51.9503C52.6723 27.7273 53.2926 27.8729 53.8111 28.1641C54.3319 28.4529 54.732 28.8684 55.0114 29.4105C55.2907 29.9527 55.4304 30.6013 55.4304 31.3565C55.4304 32.1141 55.2895 32.7652 55.0078 33.3097C54.7285 33.8542 54.3248 34.272 53.7969 34.5632C53.2713 34.8544 52.6392 35 51.9006 35ZM50.7536 33.8601H51.8366C52.3433 33.8601 52.7659 33.7678 53.1044 33.5831C53.4429 33.3961 53.6974 33.1179 53.8679 32.7486C54.0384 32.3769 54.1236 31.9129 54.1236 31.3565C54.1236 30.8002 54.0384 30.3385 53.8679 29.9716C53.6974 29.6023 53.4453 29.3265 53.1115 29.1442C52.7801 28.9595 52.3681 28.8672 51.8757 28.8672H50.7536V33.8601Z" fill="#009BAF"/>
</svg>
