<svg width="72" height="72" viewBox="0 0 72 72" fill="none" xmlns="http://www.w3.org/2000/svg">
<path fill-rule="evenodd" clip-rule="evenodd" d="M54.4999 31C59.1944 31 62.9999 27.1944 62.9999 22.5C62.9999 17.8056 59.1944 14 54.4999 14C49.8055 14 45.9999 17.8056 45.9999 22.5C45.9999 27.1944 49.8055 31 54.4999 31ZM52.9999 51.0991C57.6962 51.1465 63.1967 50.8793 68.9999 50V41.5C68.9999 36.4244 66.3921 31.9579 62.4432 29.3673C60.5178 31.5924 57.6733 33.0001 54.4999 33.0001C51.5591 33.0001 48.9006 31.7911 46.9944 29.843C46.9405 31.5253 46.4908 33.1077 45.7354 34.5001C50.1187 37.4661 52.9999 42.4842 52.9999 48.1753V51.0991Z" fill="#69747F"/>
<path fill-rule="evenodd" clip-rule="evenodd" d="M17.5 31C22.1944 31 26 27.1944 26 22.5C26 17.8056 22.1944 14 17.5 14C12.8056 14 9 17.8056 9 22.5C9 27.1944 12.8056 31 17.5 31ZM3 41.5C3 36.4244 5.60787 31.9579 9.55677 29.3673C11.4821 31.5924 14.3267 33.0001 17.5 33.0001C20.6733 33.0001 23.5179 31.5924 25.4432 29.3673C25.633 29.4918 25.8196 29.6206 26.003 29.7536C26.0436 31.4692 26.4958 33.0831 27.2646 34.5001C22.8812 37.4661 20 42.4843 20 48.1753V51.062C12.1179 51.2873 5.83302 50.5666 3 50V41.5Z" fill="#69747F"/>
<path fill-rule="evenodd" clip-rule="evenodd" d="M36.5 38C41.1944 38 45 34.1944 45 29.5C45 24.8056 41.1944 21 36.5 21C31.8056 21 28 24.8056 28 29.5C28 34.1944 31.8056 38 36.5 38ZM22 48.5C22 43.4244 24.6079 38.9579 28.5568 36.3673C30.4821 38.5924 33.3267 40.0001 36.5 40.0001C39.6733 40.0001 42.5179 38.5924 44.4432 36.3673C48.3921 38.9579 51 43.4244 51 48.5V57C37.8 59 26.1667 57.8334 22 57V48.5Z" fill="#009BAF"/>
</svg>
