<svg width="17" height="17" viewBox="0 0 17 17" fill="none" xmlns="http://www.w3.org/2000/svg">
<path d="M14.1693 9.208C14.1693 12.7497 11.6901 14.5205 8.74344 15.5476C8.58914 15.5999 8.42153 15.5974 8.26885 15.5405C5.3151 14.5205 2.83594 12.7497 2.83594 9.208V4.24967C2.83594 4.06181 2.91057 3.88164 3.0434 3.7488C3.17624 3.61596 3.35641 3.54133 3.54427 3.54133C4.96094 3.54133 6.73177 2.69133 7.96427 1.61467C8.11433 1.48646 8.30523 1.41602 8.5026 1.41602C8.69998 1.41602 8.89087 1.48646 9.04094 1.61467C10.2805 2.69842 12.0443 3.54133 13.4609 3.54133C13.6488 3.54133 13.829 3.61596 13.9618 3.7488C14.0946 3.88164 14.1693 4.06181 14.1693 4.24967V9.208Z" stroke="#8797A6" stroke-width="2" stroke-linecap="round" stroke-linejoin="round"/>
<path d="M6.375 8.49967L7.79167 9.91634L10.625 7.08301" stroke="#8797A6" stroke-width="2" stroke-linecap="round" stroke-linejoin="round"/>
</svg>
