<svg width="24" height="25" viewBox="0 0 24 25" fill="none" xmlns="http://www.w3.org/2000/svg">
<g id="bi:instagram" clip-path="url(#clip0_34_7679)">
<path id="Vector" d="M12.0507 0.558594C8.80801 0.558594 8.40025 0.57353 7.12617 0.630289C5.85209 0.690034 4.98428 0.890183 4.22402 1.18592C3.42655 1.48588 2.70422 1.95639 2.10753 2.56456C1.49973 3.16156 1.02928 3.8838 0.728893 4.68105C0.433151 5.43982 0.23151 6.30912 0.173257 7.57872C0.116499 8.85579 0.101562 9.26206 0.101562 12.5092C0.101562 15.7534 0.116499 16.1597 0.173257 17.4338C0.233003 18.7064 0.433151 19.5742 0.728893 20.3344C1.03509 21.1201 1.44286 21.7863 2.10753 22.4509C2.7707 23.1156 3.43687 23.5249 4.22253 23.8296C4.98429 24.1253 5.8506 24.327 7.12318 24.3852C8.39876 24.442 8.80503 24.4569 12.0507 24.4569C15.2964 24.4569 15.7012 24.442 16.9768 24.3852C18.2478 24.3255 19.1186 24.1253 19.8789 23.8296C20.6759 23.5295 21.3977 23.059 21.9939 22.4509C22.6586 21.7863 23.0663 21.1201 23.3725 20.3344C23.6668 19.5742 23.8684 18.7064 23.9282 17.4338C23.9849 16.1597 23.9999 15.7534 23.9999 12.5077C23.9999 9.26206 23.9849 8.85579 23.9282 7.58021C23.8684 6.30912 23.6668 5.43982 23.3725 4.68105C23.0722 3.88378 22.6017 3.16153 21.9939 2.56456C21.3974 1.95616 20.675 1.48562 19.8774 1.18592C19.1157 0.890183 18.2464 0.688541 16.9753 0.630289C15.6997 0.57353 15.2949 0.558594 12.0477 0.558594H12.0522H12.0507ZM10.9798 2.71243H12.0522C15.2426 2.71243 15.6205 2.72288 16.8797 2.78114C18.0447 2.83341 18.678 3.02908 19.0992 3.19189C19.6564 3.40847 20.0552 3.66836 20.4734 4.08658C20.8916 4.5048 21.15 4.90211 21.3666 5.46073C21.5309 5.88045 21.725 6.51375 21.7773 7.6788C21.8356 8.93794 21.8475 9.31583 21.8475 12.5048C21.8475 15.6937 21.8356 16.0731 21.7773 17.3322C21.725 18.4973 21.5294 19.1291 21.3666 19.5503C21.175 20.0691 20.8692 20.5382 20.4719 20.9229C20.0537 21.3412 19.6564 21.5996 19.0977 21.8161C18.6795 21.9804 18.0462 22.1746 16.8797 22.2284C15.6205 22.2851 15.2426 22.2986 12.0522 22.2986C8.86179 22.2986 8.4824 22.2851 7.22326 22.2284C6.05822 22.1746 5.4264 21.9804 5.0052 21.8161C4.48615 21.6248 4.01659 21.3196 3.63104 20.9229C3.23336 20.5376 2.92712 20.0681 2.73486 19.5488C2.57205 19.1291 2.37638 18.4958 2.32411 17.3307C2.26735 16.0716 2.2554 15.6937 2.2554 12.5018C2.2554 9.31135 2.26735 8.93495 2.32411 7.67581C2.37788 6.51077 2.57205 5.87746 2.73635 5.45625C2.95293 4.89912 3.21282 4.50032 3.63104 4.0821C4.04926 3.66388 4.44657 3.40548 5.0052 3.1889C5.4264 3.0246 6.05822 2.83043 7.22326 2.77666C8.32557 2.72587 8.75275 2.71094 10.9798 2.70944V2.71243ZM18.4301 4.69599C18.2418 4.69599 18.0553 4.73308 17.8813 4.80514C17.7074 4.8772 17.5493 4.98282 17.4161 5.11597C17.283 5.24912 17.1774 5.40719 17.1053 5.58116C17.0333 5.75513 16.9962 5.94158 16.9962 6.12989C16.9962 6.31819 17.0333 6.50465 17.1053 6.67862C17.1774 6.85258 17.283 7.01066 17.4161 7.14381C17.5493 7.27696 17.7074 7.38258 17.8813 7.45464C18.0553 7.5267 18.2418 7.56378 18.4301 7.56378C18.8104 7.56378 19.1751 7.41271 19.444 7.14381C19.7129 6.8749 19.864 6.51018 19.864 6.12989C19.864 5.74959 19.7129 5.38488 19.444 5.11597C19.1751 4.84706 18.8104 4.69599 18.4301 4.69599ZM12.0522 6.37186C11.2383 6.35916 10.43 6.5085 9.67429 6.8112C8.91864 7.11389 8.23074 7.56389 7.65066 8.13499C7.07059 8.70609 6.60991 9.38688 6.29547 10.1377C5.98102 10.8886 5.81908 11.6945 5.81908 12.5085C5.81908 13.3225 5.98102 14.1284 6.29547 14.8793C6.60991 15.6301 7.07059 16.3109 7.65066 16.882C8.23074 17.4531 8.91864 17.9031 9.67429 18.2058C10.43 18.5085 11.2383 18.6578 12.0522 18.6451C13.6632 18.62 15.1996 17.9624 16.33 16.8143C17.4603 15.6662 18.0939 14.1196 18.0939 12.5085C18.0939 10.8973 17.4603 9.3508 16.33 8.20269C15.1996 7.05458 13.6632 6.39699 12.0522 6.37186ZM12.0522 8.5242C13.1087 8.5242 14.1219 8.94389 14.869 9.69095C15.6161 10.438 16.0358 11.4512 16.0358 12.5077C16.0358 13.5642 15.6161 14.5775 14.869 15.3245C14.1219 16.0716 13.1087 16.4913 12.0522 16.4913C10.9957 16.4913 9.98248 16.0716 9.23541 15.3245C8.48835 14.5775 8.06866 13.5642 8.06866 12.5077C8.06866 11.4512 8.48835 10.438 9.23541 9.69095C9.98248 8.94389 10.9957 8.5242 12.0522 8.5242Z" fill="white"/>
</g>
<defs>
<clipPath id="clip0_34_7679">
<rect width="23.8983" height="23.8983" fill="white" transform="translate(0.101562 0.558594)"/>
</clipPath>
</defs>
</svg>
