<svg width="66" height="66" viewBox="0 0 66 66" fill="none" xmlns="http://www.w3.org/2000/svg">
<path d="M33.5 31.075C31.653 31.075 29.8816 30.3243 28.5755 28.9881C27.2695 27.6519 26.5357 25.8397 26.5357 23.95C26.5357 22.0603 27.2695 20.2481 28.5755 18.9119C29.8816 17.5757 31.653 16.825 33.5 16.825C35.347 16.825 37.1184 17.5757 38.4245 18.9119C39.7306 20.2481 40.4643 22.0603 40.4643 23.95C40.4643 24.8857 40.2842 25.8122 39.9342 26.6766C39.5842 27.5411 39.0712 28.3265 38.4245 28.9881C37.7778 29.6498 37.0101 30.1746 36.1651 30.5326C35.3202 30.8907 34.4146 31.075 33.5 31.075ZM33.5 4C28.3283 4 23.3684 6.10187 19.7114 9.84322C16.0545 13.5846 14 18.6589 14 23.95C14 38.9125 33.5 61 33.5 61C33.5 61 53 38.9125 53 23.95C53 18.6589 50.9455 13.5846 47.2886 9.84322C43.6316 6.10187 38.6717 4 33.5 4Z" fill="#07BBD3"/>
<path d="M41 23.5C41 27.6421 37.6421 31 33.5 31C29.3579 31 26 27.6421 26 23.5C26 19.3579 29.3579 16 33.5 16C37.6421 16 41 19.3579 41 23.5Z" fill="white"/>
</svg>
