<svg width="179" height="197" viewBox="0 0 179 197" fill="none" xmlns="http://www.w3.org/2000/svg">
<path d="M178.375 142.563C178.375 146.284 176.301 149.515 173.141 151.179L95.1288 194.654C93.5488 195.829 91.5738 196.417 89.5 196.417C87.4263 196.417 85.4513 195.829 83.8713 194.654L5.85879 151.179C4.27562 150.354 2.95072 149.115 2.02801 147.596C1.1053 146.077 0.620071 144.336 0.625038 142.563V54.4377C0.625038 50.7168 2.69879 47.4856 5.85879 45.821L83.8713 2.346C85.4513 1.171 87.4263 0.583496 89.5 0.583496C91.5738 0.583496 93.5488 1.171 95.1288 2.346L173.141 45.821C176.301 47.4856 178.375 50.7168 178.375 54.4377V142.563Z" fill="#7280FA"/>
<path d="M90.0753 43.7427C57.3741 43.7427 30.8253 68.7895 30.8253 99.6407C30.8253 130.492 57.3741 155.539 90.0753 155.539C122.717 155.539 149.22 130.581 149.316 99.8062C149.322 99.7512 149.325 99.696 149.325 99.6407C149.325 99.5911 149.323 99.5415 149.318 99.492C149.233 68.709 122.724 43.7427 90.0753 43.7427ZM91.6751 47.1335C92.9406 47.167 94.1991 47.2318 95.4434 47.3436C95.5168 47.3816 95.1839 47.4129 93.7998 47.7494C93.4277 47.5259 92.61 47.3235 91.6751 47.1335ZM109.742 52.3241C110.63 52.1788 112.055 52.9804 111.209 54.531C114.209 57.2812 116.841 61.9408 111.473 63.9733C110.425 64.3992 109.044 64.0527 108.557 63.023C109.625 63.1326 109.41 62.5356 108.084 60.9436C111 61.5104 104.564 55.2487 104.82 56.9111C98.0622 55.289 106.153 52.3979 109.327 53.6489C108.869 52.8373 109.208 52.4113 109.742 52.3241ZM114.793 52.5466C117.869 53.983 120.798 55.6847 123.542 57.63C123.325 57.9173 123.395 58.1241 124.383 58.2527C137.399 67.8672 145.77 82.8188 145.77 99.6407C145.77 121.109 132.148 139.541 112.612 147.697C113.721 146.784 114.893 145.649 116.043 145.191C118.444 142.972 125.16 138.528 122.205 135.75C121.084 133.562 118.7 131.983 118.591 129.335C115.159 128.271 117.641 120.721 121.383 124.675C124.368 127.855 127.627 121.699 124.917 122.635C120.783 122.796 125.514 119.772 127.547 118.738C129.394 115.045 130.126 124.428 131.97 120.459C131.247 121.445 136.648 124.087 134.195 119.982C130.97 120.029 129.397 115.955 126.827 115.794C124.931 113.335 123.862 115.989 125.965 116.71C127.103 119.298 123.11 118.332 121.881 119.739C120.358 117.391 114.497 116.652 110.922 116.654C108.764 115.882 104.077 115.187 101.819 115.787C102.591 117.981 98.3632 120.876 96.7966 117.64C92.9087 117.509 94.4029 116.064 96.5051 114.488C97.5124 110.35 93.4656 116.463 90.8479 113.838C87.716 115.522 86.6625 119.513 88.0573 121.62C91.9441 125.756 86.326 125.127 83.053 124.761C86.0108 123.349 80.1012 123.685 77.3733 122.286C76.4134 124.43 68.3021 119.733 73.1642 119.644C76.795 118.33 69.083 117.771 70.0512 115.228C68.8046 111.591 68.7098 108.233 64.9261 105.413C62.2124 102.601 65.7366 97.141 67.6693 102.36C69.4421 104.743 70.5418 106.199 73.0315 103.508C77.4302 102.276 76.5426 96.6211 73.6595 94.3941C68.884 92.4914 77.3615 87.8172 75.6396 91.085C72.875 95.303 80.0419 93.4126 78.4659 89.9961C83.9133 89.3812 89.2446 86.5449 91.4594 81.5913C95.0381 77.6896 85.9195 73.5542 92.3576 71.7554C89.8217 69.9264 91.5269 70.3736 93.1587 69.5083C93.8578 69.837 96.6355 72.9595 94.8106 74.225C96.6059 76.6923 96.3902 75.8125 98.4533 74.4341C98.0859 76.6543 101.057 76.8567 100.012 79.8729C102.325 78.2307 103.776 75.1451 107.029 75.0366C111.372 75.4749 111.818 69.9555 109.322 66.8241C111.257 67.0186 115.354 63.0454 115.609 59.772C117.538 57.3997 112.712 53.5841 114.822 53.0922C114.798 52.9112 114.788 52.7289 114.793 52.5466ZM105.723 58.8922C106.138 59.0297 108.188 64.1242 107.943 65.0969C106.286 66.4652 109.346 70.5178 106.793 70.7638C105.345 72.8544 102.504 71.6917 100.655 74.4408C100.631 74.9081 99.502 74.8924 99.8373 74.301C100.688 71.0109 95.5678 69.4971 99.2354 67.0902C101.955 65.9722 105.739 64.8766 105.997 60.7435C105.627 59.3516 105.583 58.8463 105.723 58.8922ZM38.2565 80.7025C38.3678 80.6924 38.4946 80.8143 38.6475 81.1016C43.4456 81.6919 39.2969 84.6567 41.8837 86.9429C41.2581 91.7356 41.1822 96.9431 42.6303 101.713C44.0523 101.704 44.6981 101.012 44.4362 104.271C48.4001 106.504 44.358 98.771 45.6983 97.0627C45.799 92.7083 50.9099 91.0928 53.7634 88.2085C58.8115 86.2945 58.1953 93.0112 58.7818 95.5322C61.0096 95.0962 62.402 95.0593 62.056 98.2925C60.8544 101.474 61.5453 105.507 63.8157 108.162C65.9653 114.302 61.6709 106.586 58.4394 106.921C58.1431 109.224 60.9196 112.069 61.723 114.271C62.2646 118.736 65.9487 118.026 68.3152 121.261C71.3831 124.774 76.2855 125.353 80.8406 125.838C84.8281 125.734 88.6498 128.33 91.9844 127.818C88.8832 127.224 93.494 125.432 93.4703 126.773C90.1879 131.098 99.4238 125.541 98.8846 125.207C103.565 125.655 96.5952 123.112 94.5167 124.805C91.9073 126.898 91.7272 122.267 91.1584 125.045C90.2483 124.088 89.5278 119.132 92.0033 122.874C96.3523 124.495 93.9657 120.26 91.9844 118.407C95.7349 118.327 97.9058 121.975 102.312 120.292C107.35 122.827 100.968 117.823 104.272 118.16C104.408 122.681 110.576 119.073 112.292 122.922C108.632 125.688 113.336 123.978 114.982 125.357C116.95 125.411 113.439 134.147 112.734 131.941C108.445 132.243 109.159 130.984 110.169 127.94C109.264 127.788 101.93 126.647 101.768 128.973C101.854 132.753 98.1819 130.039 95.6922 131.284C92.0258 133.661 89.5764 137.516 84.4608 137.179C77.8746 138.561 84.6907 143.691 84.3186 146.723C88.8062 148.841 94.6921 145.757 99.6643 145.398C103.378 145.38 105.438 147.536 108.64 147.686C108.944 148.313 109.284 148.669 109.652 148.843C103.392 151.058 96.7605 152.19 90.0753 152.185C59.2949 152.185 34.3803 128.68 34.3803 99.6407C34.3803 95.4227 34.9219 91.3276 35.9149 87.3979C37.5182 85.6517 37.5834 80.7573 38.2565 80.7025ZM91.2236 85.0826C89.9319 85.001 87.684 86.9496 89.5729 88.962C91.8872 89.9458 90.9498 88.7194 91.4084 87.844C92.4275 85.9099 91.9974 85.1307 91.2236 85.0826ZM90.8622 92.1638C89.9462 92.2499 89.0278 93.2315 88.8903 95.3276C88.5787 98.4725 90.5671 100.711 87.5276 103.039C84.5023 105.918 83.0921 110.724 78.2905 111.784C76.1516 115.974 75.2012 110.097 73.4948 109.815C75.2403 112.29 73.0753 116.534 75.7676 118.054C76.5426 121.07 82.4558 120.231 83.636 121.262C85.2879 122.143 85.2642 115.867 87.4043 115.656C89.8525 114.323 84.6729 111.746 88.2729 110.682C91.681 110.861 92.9857 104.795 95.1045 109.383C100.185 110.138 97.9639 102.094 95.8273 100.077C96.1449 97.9113 89.8371 97.852 92.7273 95.795C93.2156 93.4182 92.0401 92.052 90.8622 92.1638ZM90.2507 101.642C90.7211 102.972 90.3242 102.758 91.7367 102.338C91.7604 104.48 92.443 107.923 89.471 108.915L89.1913 109.16L88.3049 109.156C82.8255 107.007 89.3785 104.246 90.2507 101.642ZM100.576 112.978C99.4973 112.874 97.382 115.067 98.4189 117.628C99.3337 119.442 101.189 117.344 100.495 116.064C101.498 113.932 101.224 113.042 100.576 112.978Z" fill="#12171C"/>
</svg>
