<svg width="427" height="141" viewBox="0 0 427 141" fill="none" xmlns="http://www.w3.org/2000/svg">
<path d="M73.6758 78.8918C73.6758 94.8502 57.9933 107.785 38.6494 107.785C19.3055 107.785 20.2318 97.3063 20.2318 81.3479C20.2318 65.3895 19.3072 50.0002 38.6494 50.0002C57.9916 50.0002 73.6758 62.9352 73.6758 78.8918Z" fill="#41FFC9"/>
<path d="M53.4511 111.76C53.4511 127.518 37.7686 140.292 18.4247 140.292C-0.919245 140.292 0.00707639 129.944 0.00707639 114.185C0.00707639 98.4261 -0.91749 83.2291 18.4247 83.2291C37.7669 83.2291 53.4511 96.0025 53.4511 111.76Z" fill="#07BBD3"/>
<path d="M95.8737 71.7908H108.603C119.037 71.7908 124.257 76.1342 124.257 84.8211C124.257 89.0849 122.737 92.1935 119.699 94.1398C122.451 94.5618 124.615 95.9051 126.193 98.1673C127.768 100.432 128.558 103.092 128.558 106.143C128.558 110.619 127.024 114 123.956 116.291C120.888 118.582 116.861 119.725 111.872 119.725H95.8737V71.7884V71.7908ZM104.733 92.4034H108.69C113.621 92.4034 116.086 90.0882 116.086 85.4529C116.086 80.5042 113.648 78.0298 108.775 78.0298H104.733V92.4034ZM104.733 113.252H109.635C116.401 113.252 119.783 110.621 119.783 105.354C119.783 100.615 116.229 98.2468 109.119 98.2468H104.733V113.252Z" fill="white"/>
<path d="M152.526 119.725H143.811V71.7884H152.526V119.725Z" fill="white"/>
<path d="M165.6 95.8412C165.6 88.6133 168.081 82.4326 173.04 77.3041C177.999 72.1756 184.248 69.6114 191.791 69.6114C199.335 69.6114 205.566 72.1756 210.499 77.3041C215.428 82.4326 217.895 88.5983 217.895 95.7987C217.895 102.999 215.443 109.152 210.543 114.253C205.64 119.357 199.391 121.906 191.791 121.906C184.192 121.906 177.928 119.369 172.998 114.296C168.069 109.222 165.602 103.072 165.602 95.8412H165.6ZM174.911 95.3089C174.911 100.165 176.533 104.434 179.784 108.118C183.032 111.802 187.036 113.641 191.791 113.641C196.895 113.641 200.984 111.882 204.059 108.363C207.133 104.844 208.67 100.492 208.67 95.3089C208.67 90.3978 207.133 86.2665 204.059 82.91C200.984 79.5535 196.881 77.8765 191.747 77.8765C186.614 77.8765 182.525 79.5685 179.48 82.95C176.435 86.334 174.913 90.4528 174.913 95.3089H174.911Z" fill="white"/>
<path d="M230.968 71.7884H245.369C252.71 71.7884 258.681 74.0529 263.285 78.5797C267.886 83.1088 270.189 88.8196 270.189 95.717C270.189 102.614 267.86 108.34 263.202 112.893C258.543 117.449 252.572 119.725 245.285 119.725H230.971V71.7884H230.968ZM239.694 112.379H242.658C254.968 112.379 261.123 106.84 261.123 95.7556C261.123 84.6715 254.968 79.1319 242.658 79.1319H239.694V112.379Z" fill="white"/>
<path d="M290.063 69.6114L319.957 107.247L320.132 70.9292H329.021V121.906H322.31L292.329 84.3537L292.241 120.918H283.263V69.6114H290.063Z" fill="white"/>
<path d="M344.274 71.7884H358.674C366.016 71.7884 371.987 74.0529 376.59 78.5797C381.192 83.1088 383.495 88.8196 383.495 95.717C383.495 102.614 381.165 108.34 376.507 112.893C371.848 117.449 365.877 119.725 358.591 119.725H344.276V71.7884H344.274ZM352.999 112.379H355.963C368.273 112.379 374.428 106.84 374.428 95.7556C374.428 84.6715 368.273 79.1319 355.963 79.1319H352.999V112.379Z" fill="white"/>
<path d="M5.344 29.3362L3.04 27.7362C4.736 26.0722 5.888 23.3842 6.496 20.9522L8.96 21.7522C8.288 24.4082 7.264 27.4482 5.344 29.3362ZM10.592 21.7842L13.024 21.4962C13.632 23.5122 13.984 26.1362 13.984 27.8962L11.392 28.2482C11.456 26.5202 11.136 23.8642 10.592 21.7842ZM15.296 21.4962L17.632 20.9842C18.4 22.7442 19.168 25.0162 19.424 26.5202L16.992 27.1602C16.768 25.6242 16.064 23.2882 15.296 21.4962ZM22.176 8.15219H16.064C15.552 9.20819 14.976 10.2322 14.4 11.2242H21.472C21.696 10.2962 21.952 9.24019 22.176 8.15219ZM10.24 16.9202H23.744C24 15.9922 24.256 14.9042 24.448 13.7842H12.736C11.968 14.8722 11.136 15.9282 10.24 16.9202ZM26.432 16.9202H29.952C29.952 16.9202 29.888 17.7842 29.824 18.1362C29.28 24.6962 28.704 27.4482 27.68 28.4722C27.04 29.1442 26.336 29.4002 25.376 29.4642C24.512 29.5602 22.976 29.5602 21.344 29.4962C21.312 28.6962 20.96 27.5122 20.48 26.7762C21.984 26.9362 23.424 26.9362 24.064 26.9362C24.608 26.9362 24.896 26.8722 25.248 26.5842C25.856 26.0402 26.368 24.0562 26.784 19.5442H7.584C6.08 20.8882 4.384 22.0722 2.56 23.1282C2.176 22.4242 1.44 21.2402 0.928 20.6002C6.208 17.7522 10.08 13.2402 12.736 8.15219H2.496V5.46419H9.184C8.64 4.28019 7.36 2.52019 6.24 1.24019L8.896 0.184187C10.08 1.43219 11.456 3.22419 12.064 4.37619L9.536 5.46419H14.016C14.784 3.70419 15.392 1.91219 15.904 0.120188L18.944 0.888187C18.464 2.42419 17.888 3.96019 17.28 5.46419H25.44C25.056 7.32019 24.608 9.52819 24.192 11.2242H27.68C27.328 13.0482 26.88 15.2242 26.432 16.9202ZM24.384 24.4082L22.208 25.3042C21.856 24.1522 20.96 22.2962 20.032 20.9842L22.144 20.2162C23.04 21.4962 24.032 23.2882 24.384 24.4082Z" fill="white"/>
<path d="M40.384 0.184187L43.168 1.01619C42.432 3.12819 41.472 5.24019 40.416 7.22419V29.4962H37.472V12.0242C36.64 13.2402 35.712 14.3602 34.816 15.3522C34.56 14.6482 33.696 13.0482 33.216 12.3122C36.064 9.36819 38.752 4.79219 40.384 0.184187ZM51.232 12.5682H46.592V18.5842H51.232V12.5682ZM53.984 21.1442H46.592V23.3202H43.776V9.97619H53.984V21.1442ZM62.752 3.09619V5.94419H60.608V25.7522C60.608 27.6402 60.16 28.5042 58.912 28.9842C57.664 29.4642 55.52 29.5602 52.512 29.5282C52.384 28.6962 51.936 27.3522 51.488 26.4882C53.792 26.5842 56.096 26.5522 56.736 26.5522C57.408 26.5202 57.632 26.3602 57.632 25.7202V5.94419H43.072V3.09619H62.752Z" fill="white"/>
<path d="M89.152 9.30419L91.776 10.1362C89.12 15.0322 84.48 19.6722 78.976 22.3922C78.624 21.8162 77.888 20.8242 77.408 20.3122C80.288 18.9682 83.008 16.9842 85.152 14.7762C80.32 15.0962 79.456 15.2882 78.88 15.5122C78.784 14.8082 78.464 13.4962 78.272 12.8562C78.88 12.6962 79.776 12.5042 80.256 11.8962C80.8 11.2882 82.272 8.72819 83.264 6.96819H78.048V4.24819H85.44C85.12 3.19219 84.64 1.88019 84.096 0.856188L86.656 0.0881882C87.424 1.36819 88.128 3.09619 88.352 4.21619L88.256 4.24819H94.528V6.96819H86.208C85.248 8.63219 84 10.8402 83.008 12.5042L87.296 12.2802C88.032 11.3202 88.672 10.2962 89.152 9.30419ZM77.44 5.49619V7.86419H65.504V5.49619H71.104C70.624 4.31219 69.696 2.48819 68.864 1.17619L71.072 -0.0078125C71.936 1.33619 72.896 3.03219 73.376 4.18419L71.168 5.49619H77.44ZM76.192 12.0882H66.784V9.75219H76.192V12.0882ZM76.224 13.9762V16.2802H66.784V13.9762H76.224ZM73.792 25.2722V20.6962H69.312V25.2722H73.792ZM91.168 15.1282L94.016 16.0882C92.736 18.3602 91.104 20.4402 89.184 22.3602C91.168 24.1202 93.472 26.2322 94.688 27.6722L92.384 29.5282C91.296 28.1202 89.152 25.9442 87.168 24.1522C84.352 26.4242 81.024 28.3122 77.312 29.6242C77.024 29.0802 76.48 28.2802 76 27.6722H69.312V29.1122H66.816V18.2962H76.224V27.0962C83.104 24.7282 88.672 20.2162 91.168 15.1282Z" fill="white"/>
<path d="M122.912 3.25619H119.04V5.08019H122.912V3.25619ZM123.808 11.0002H119.744C117.28 11.0002 116.672 10.0722 116.672 7.67219V1.33619H125.44V7.03219H119.04V7.73619C119.04 8.60019 119.168 8.92019 119.872 8.92019H123.744C124.352 8.92019 125.344 8.85619 125.856 8.72819C125.92 9.36819 126.016 10.2642 126.08 10.8082C125.6 10.9682 124.704 11.0002 123.808 11.0002ZM112.704 3.22419H108.96V5.04819H112.704V3.22419ZM108.96 9.04819L115.392 8.05619C115.232 8.72819 115.104 9.65619 115.072 10.1682C108.288 11.3202 107.264 11.5442 106.72 11.8322C106.56 11.2242 106.048 10.1042 105.728 9.56019C106.144 9.36819 106.624 8.85619 106.624 7.67219V1.30419H115.232V7.00019H108.96V9.04819ZM113.792 15.7682V18.2962H118.112V15.7682H113.792ZM126.272 20.5362H105.632V18.2962H111.072V15.7682H106.88V13.5282H111.072V11.5122H113.792V13.5282H118.112V11.5122H120.864V13.5282H125.152V15.7682H120.864V18.2962H126.272V20.5362ZM125.696 24.1202L123.04 25.4002C121.76 24.3442 119.552 22.9042 117.408 21.8482L119.36 20.5362C121.632 21.5602 124.192 23.0002 125.696 24.1202ZM112.096 20.5682L114.752 21.4962C113.12 23.0322 110.528 24.5682 108.416 25.5282C107.872 25.0162 106.848 24.1202 106.144 23.7362C108.384 22.9362 110.72 21.7842 112.096 20.5682ZM104.448 5.08019L102.208 6.74419C101.312 5.40019 99.52 3.22419 98.112 1.65619L100.32 0.280188C101.792 1.81619 103.584 3.83219 104.448 5.08019ZM104.096 15.2562L105.536 15.7682C105.184 18.2962 104.608 20.5362 103.904 22.4882C105.824 25.9442 109.696 26.4562 115.392 26.4562C118.784 26.4562 123.68 26.2962 127.072 25.9762C126.624 26.6162 126.272 27.9602 126.112 28.7602C122.976 28.9522 118.944 29.0482 115.36 29.0482C109.152 29.0482 105.28 28.4082 102.784 24.9522C101.728 26.9362 100.416 28.4402 98.944 29.5922C98.528 28.9842 97.6 27.9922 96.992 27.5762C99.712 25.6562 101.632 22.2962 102.592 17.6562H100.064C99.36 17.6562 98.464 17.8802 98.208 18.1362C98.048 17.4642 97.536 16.1522 97.216 15.6402C97.696 15.4802 98.176 15.2882 98.688 14.6482C99.232 14.0402 100.544 11.8322 101.6 9.94419H97.632V7.54419H103.2L103.584 7.38419L105.472 8.12019C104.384 9.91219 102.56 13.1442 101.088 15.3202H103.616L104.096 15.2562Z" fill="white"/>
<path d="M138.592 13.5602L138.976 16.2802C137.952 16.6322 136.896 16.9522 135.872 17.2722V26.1362C135.872 27.6082 135.584 28.4402 134.72 28.8562C133.856 29.3682 132.608 29.4322 130.56 29.4322C130.496 28.7282 130.144 27.4482 129.76 26.6802C131.04 26.7442 132.224 26.7122 132.576 26.7122C132.992 26.6802 133.152 26.5842 133.152 26.1362V18.1682L129.856 19.1922L129.152 16.3122C130.272 16.0242 131.648 15.6082 133.152 15.1602V9.14419H129.536V6.39219H133.152V0.216188H135.872V6.39219H138.912V9.14419H135.872V14.3922L138.592 13.5602ZM152.256 16.1842H145.504C145.952 17.0482 146.4 18.2002 146.592 18.9042H151.104C151.52 18.0402 151.968 16.9842 152.256 16.1842ZM145.216 6.10419V3.35219H142.72V6.10419H145.216ZM147.552 3.35219V6.10419H150.176V3.35219H147.552ZM152.512 3.35219V6.10419H155.2V3.35219H152.512ZM158.464 23.1282L158.496 25.3682H150.112V29.5282H147.328V25.3682H138.88V23.1282H147.328V21.1762H140V18.9042H143.872C143.648 18.2002 143.36 17.3042 143.008 16.6322L145.024 16.1842H139.36V13.8482H147.328V11.9602H140.704V9.78419H147.328V8.18419H140.352V1.27219H157.632V8.18419H150.112V9.78419H157.088V11.9602H150.112V13.8482H158.048V16.1842H153.056L155.072 16.6962C154.656 17.4642 154.24 18.2322 153.824 18.9042H157.344V21.1762H150.112V23.1282H158.464Z" fill="white"/>
<path d="M406.904 104.128C405.176 93.6962 419.64 91.0722 419.64 84.2882C419.64 80.1282 416.504 77.3762 410.616 77.3762C406.456 77.3762 402.808 79.1682 399.352 82.8162L395.128 78.9122C399.224 74.3042 404.536 71.2962 411.448 71.2962C420.536 71.2962 426.808 75.7762 426.808 83.6482C426.808 93.1842 412.088 94.7842 413.432 104.128H406.904ZM410.232 120.448C407.544 120.448 405.496 118.464 405.496 115.584C405.496 112.704 407.544 110.72 410.232 110.72C412.92 110.72 415.032 112.704 415.032 115.584C415.032 118.464 412.92 120.448 410.232 120.448Z" fill="white"/>
</svg>
