<svg width="38" height="38" viewBox="0 0 38 38" fill="none" xmlns="http://www.w3.org/2000/svg">
<path d="M33.25 7.125H21.375V4.75C21.375 4.12011 21.1248 3.51602 20.6794 3.07062C20.234 2.62522 19.6299 2.375 19 2.375H4.75C4.12011 2.375 3.51602 2.62522 3.07062 3.07062C2.62522 3.51602 2.375 4.12011 2.375 4.75V28.5C2.375 29.1299 2.62522 29.734 3.07062 30.1794C3.51602 30.6248 4.12011 30.875 4.75 30.875H16.625V33.25C16.625 33.8799 16.8752 34.484 17.3206 34.9294C17.766 35.3748 18.3701 35.625 19 35.625H33.25C33.8799 35.625 34.484 35.3748 34.9294 34.9294C35.3748 34.484 35.625 33.8799 35.625 33.25V9.5C35.625 8.87011 35.3748 8.26602 34.9294 7.82062C34.484 7.37522 33.8799 7.125 33.25 7.125ZM4.75 17.8125H12.0769L9.01313 20.8881L10.6875 22.5625L16.625 16.625L10.6875 10.6875L9.01313 12.3619L12.0769 15.4375H4.75V4.75H19V28.5H4.75V17.8125ZM19 33.25V30.875C19.6299 30.875 20.234 30.6248 20.6794 30.1794C21.1248 29.734 21.375 29.1299 21.375 28.5V9.5H33.25V20.1875H25.9231L28.9869 17.1119L27.3125 15.4375L21.375 21.375L27.3125 27.3125L28.9869 25.6381L25.9231 22.5625H33.25V33.25H19Z" fill="white"/>
</svg>
