<svg width="36" height="36" viewBox="0 0 36 36" fill="none" xmlns="http://www.w3.org/2000/svg">
<g clip-path="url(#clip0_1103_12605)">
<path d="M34.4589 1.37498C34.1284 1.16052 33.7589 1.01326 33.3716 0.941613C32.9842 0.86997 32.5865 0.875348 32.2012 0.95744C31.8159 1.03953 31.4506 1.19673 31.126 1.42005C30.8015 1.64337 30.5242 1.92845 30.3099 2.25898L13.4999 28.17L5.30185 20.59C5.01261 20.3225 4.67353 20.1147 4.30397 19.9783C3.93441 19.8419 3.5416 19.7796 3.14797 19.7951C2.353 19.8262 1.60296 20.1718 1.06285 20.756C0.522737 21.3401 0.236794 22.1149 0.267925 22.9099C0.299056 23.7048 0.644711 24.4549 1.22885 24.995L11.9929 34.947C11.9929 34.947 12.3019 35.213 12.4448 35.306C12.7753 35.5206 13.1449 35.668 13.5323 35.7397C13.9198 35.8115 14.3176 35.8061 14.703 35.724C15.0885 35.6419 15.4539 35.4847 15.7785 35.2613C16.1031 35.0378 16.3805 34.7527 16.5949 34.422L35.3428 5.52398C35.5573 5.19354 35.7046 4.82408 35.7762 4.4367C35.8479 4.04933 35.8425 3.65164 35.7604 3.26635C35.6783 2.88105 35.5211 2.51571 35.2978 2.19118C35.0745 1.86666 34.7894 1.58931 34.4589 1.37498Z" fill="#07BBD3"/>
</g>
<defs>
<clipPath id="clip0_1103_12605">
<rect width="36" height="36" fill="white"/>
</clipPath>
</defs>
</svg>
