<svg width="40" height="40" viewBox="0 0 40 40" fill="none" xmlns="http://www.w3.org/2000/svg">
<g clip-path="url(#clip0_509_7468)">
<path fill-rule="evenodd" clip-rule="evenodd" d="M37.7778 20C37.7778 29.8184 29.8184 37.7778 20 37.7778C10.1816 37.7778 2.22222 29.8184 2.22222 20C2.22222 10.1816 10.1816 2.22222 20 2.22222C29.8184 2.22222 37.7778 10.1816 37.7778 20ZM40 20C40 31.0457 31.0457 40 20 40C8.9543 40 0 31.0457 0 20C0 8.9543 8.9543 0 20 0C31.0457 0 40 8.9543 40 20ZM13.3333 20.3703L22.5926 11.1111L24.4444 12.9629L17.037 20.3703L24.4442 27.7776L22.5924 29.6294L13.3333 20.3703Z" fill="#009BAF"/>
</g>
<defs>
<clipPath id="clip0_509_7468">
<rect width="40" height="40" fill="white"/>
</clipPath>
</defs>
</svg>
