<svg width="530" height="140" viewBox="0 0 530 140" fill="none" xmlns="http://www.w3.org/2000/svg">
<path d="M106.655 40.3064C106.159 37.5516 105.324 35.0677 104.332 32.8774C104.106 32.3806 103.971 32.087 103.971 32.087C103.249 30.5967 102.482 29.2645 101.716 28.0677C101.716 28.0677 101.716 28.0677 101.716 28.0451C100.069 25.2 97.7914 22.6935 95.2203 20.4806C92.4012 17.6806 89.0407 15.1741 85.0714 13.187C80.8314 11.0645 76.8169 9.64189 73.0956 8.67092C72.825 8.5806 72.6671 8.53544 72.6671 8.53544C60.1275 5.37415 51.3318 7.54189 51.3318 7.54189C30.0641 11.087 32.2518 38.1387 32.5675 53.7645C35.9054 53.8548 39.9875 54.3064 44.5658 55.458C44.5658 55.458 44.7237 55.4806 44.9943 55.5709C48.7156 56.5419 52.7526 57.9645 56.9701 60.087C60.9395 62.0741 64.2999 64.5806 67.119 67.3806C69.6675 69.5935 71.968 72.0999 73.6143 74.9451C73.6143 74.9451 73.6143 74.9451 73.6143 74.9677C75.3058 77.5645 76.9748 80.8838 78.0122 84.8129C98.6258 75.8032 104.851 62.8193 106.632 54.4193C106.632 54.4193 106.632 54.4193 106.632 54.3967C106.655 54.3064 106.677 54.2161 106.677 54.1258C106.677 54.0806 106.677 54.0129 106.7 53.9677C107.85 49.0451 107.444 44.2129 106.632 40.3516L106.655 40.3064Z" fill="#41FFC9"/>
<path d="M73.5916 74.9225C71.9452 72.0773 69.6673 69.5709 67.0963 67.358C64.2771 64.558 60.9167 62.0515 56.9473 60.0644C52.7073 57.9418 48.6929 56.5192 44.9716 55.5483C44.701 55.458 44.5431 55.4128 44.5431 55.4128C39.9648 54.2612 35.8827 53.8322 32.5448 53.7192C26.7486 53.5386 23.2078 54.4192 23.2078 54.4192C0.72223 58.1676 4.46606 88.1999 4.46606 103.216C4.46606 117.239 6.11244 123.064 9.3601 126.835C9.3601 126.835 12.5175 132.616 26.1171 133.181C28.3499 133.361 30.8082 133.384 33.492 133.181C38.6116 133.09 44.0244 132.277 49.189 130.335C49.2792 130.335 49.3469 130.29 49.4371 130.268H49.3469C50.0009 130.019 50.655 129.771 51.309 129.5C55.3461 127.716 58.7065 125.797 61.5933 123.787C61.5933 123.787 68.5848 119.903 73.6367 111.345V111.39C73.772 111.164 73.8848 110.939 74.0201 110.713C74.2231 110.374 74.4035 110.013 74.5839 109.674C79.6809 99.9644 79.7712 91.4967 77.9895 84.7902C76.952 80.8838 75.2831 77.5644 73.5916 74.945C73.5916 74.945 73.5916 74.9451 73.5916 74.9225Z" fill="#07BBD3"/>
<path d="M137.732 41.6611H158.865C171.968 41.6611 181.982 45.4547 181.982 57.3773C181.982 63.2482 178.712 69.2998 173.276 71.1966V71.6256C180.178 73.274 185.252 78.1063 185.252 86.7321C185.252 99.6031 174.562 105.564 160.511 105.564H137.755V41.6837L137.732 41.6611ZM157.918 67.6515C166.014 67.6515 169.555 64.3773 169.555 59.274C169.555 53.6515 165.766 51.416 158.075 51.416H150.475V67.6515H157.895H157.918ZM159.383 95.6966C168.089 95.6966 172.825 92.5805 172.825 85.9418C172.825 79.7321 168.179 77.1353 159.383 77.1353H150.498V95.6966H159.383Z" fill="white"/>
<path d="M207.76 41.6611H220.525V105.542H207.76V41.6611Z" fill="white"/>
<path d="M244.318 73.3419C244.318 52.5451 255.956 40.4419 272.871 40.4419C289.786 40.4419 301.423 52.6129 301.423 73.3419C301.423 94.0709 289.786 106.761 272.871 106.761C255.956 106.761 244.318 94.0709 244.318 73.3419ZM288.365 73.3419C288.365 59.6129 282.32 51.4161 272.848 51.4161C263.376 51.4161 257.332 59.6129 257.332 73.3419C257.332 87.0709 263.376 95.6967 272.848 95.6967C282.32 95.6967 288.365 86.9806 288.365 73.3419Z" fill="white"/>
<path d="M325.194 41.6611H342.696C362.182 41.6611 374.248 51.7547 374.248 73.3418C374.248 94.9289 362.182 105.542 343.372 105.542H325.172V41.6611H325.194ZM341.906 95.2676C353.814 95.2676 361.212 88.8773 361.212 73.3418C361.212 57.8063 353.792 51.845 341.906 51.845H337.937V95.2676H341.906Z" fill="white"/>
<path d="M398.042 41.6611H411.055L429.594 75.6676L435.977 89.4869H436.405C435.706 82.8482 434.759 74.3805 434.759 67.1321V41.6611H446.825V105.542H433.879L415.431 71.3547L408.958 57.6256H408.529C409.138 64.5353 410.086 72.5515 410.086 79.9127V105.564H398.02V41.6837L398.042 41.6611Z" fill="white"/>
<path d="M473.909 41.6611H491.411C510.897 41.6611 522.962 51.7547 522.962 73.3418C522.962 94.9289 510.897 105.542 492.087 105.542H473.887V41.6611H473.909ZM490.644 95.2676C502.552 95.2676 509.949 88.8773 509.949 73.3418C509.949 57.8063 502.529 51.845 490.644 51.845H486.674V95.2676H490.644Z" fill="white"/>
</svg>
