<svg width="180" height="200" viewBox="0 0 180 200" fill="none" xmlns="http://www.w3.org/2000/svg">
<path d="M180 145C180 148.8 177.9 152.1 174.7 153.8L95.7 198.2C94.1 199.4 92.1 200 90 200C87.9 200 85.9 199.4 84.3 198.2L5.30004 153.8C3.69683 152.957 2.35516 151.692 1.42077 150.14C0.48638 148.589 -0.0049917 146.811 3.82324e-05 145V55C3.82324e-05 51.2 2.10004 47.9 5.30004 46.2L84.3 1.8C85.9 0.600001 87.9 0 90 0C92.1 0 94.1 0.600001 95.7 1.8L174.7 46.2C177.9 47.9 180 51.2 180 55V145Z" fill="#32D6FF"/>
<g clip-path="url(#clip0_57_7840)">
<path d="M116.356 151.422C99.1917 138.752 70.6686 117.153 35.1909 112.442L50.356 97.6098C93.8861 114.42 116.356 151.422 116.356 151.422ZM37.0022 127.692L48.8352 118.221C83.3688 126.714 112.657 151.456 112.657 151.456C100.324 144.493 65.3373 127.363 37.0022 127.692ZM47.8655 93.338L87.38 58.1807L95.8896 63.1061L76.7303 84.8583C97.3633 101.873 120.26 119.973 118.21 149.479C97.8931 120.695 73.9366 100.109 47.8655 93.338ZM81.643 84.2347L111.994 48.9321C128.189 62.1748 137.241 82.7352 137.241 93.842C135.921 108.033 122.042 142.327 120.76 146.112C119.799 137.539 126.886 122.361 81.643 84.2347Z" fill="#12171C"/>
</g>
<defs>
<clipPath id="clip0_57_7840">
<rect width="102.524" height="102.524" fill="white" transform="translate(34.9517 48.9321)"/>
</clipPath>
</defs>
</svg>
