<svg width="180" height="200" viewBox="0 0 180 200" fill="none" xmlns="http://www.w3.org/2000/svg">
<path d="M180 145C180 148.8 177.9 152.1 174.7 153.8L95.7 198.2C94.1 199.4 92.1 200 90 200C87.9 200 85.9 199.4 84.3 198.2L5.30004 153.8C3.69683 152.957 2.35516 151.692 1.42077 150.14C0.48638 148.589 -0.0049917 146.811 3.82324e-05 145V55C3.82324e-05 51.2 2.10004 47.9 5.30004 46.2L84.3 1.8C85.9 0.600001 87.9 0 90 0C92.1 0 94.1 0.600001 95.7 1.8L174.7 46.2C177.9 47.9 180 51.2 180 55V145Z" fill="#41FFC9"/>
<path d="M48.9145 130.742C46.5682 130.742 44.5589 129.859 42.8866 128.092C41.2143 126.326 40.3796 124.205 40.3825 121.73V63.1525C40.3825 60.6743 41.2186 58.552 42.8909 56.7856C44.5632 55.0193 46.5711 54.1376 48.9145 54.1406H125.703C128.05 54.1406 130.059 55.0238 131.731 56.7901C133.403 58.5565 134.238 60.6773 134.235 63.1525V121.73C134.235 124.208 133.399 126.33 131.727 128.097C130.055 129.863 128.047 130.745 125.703 130.742H48.9145ZM70.2447 112.718H104.373V108.212H70.2447V112.718ZM57.4466 99.2001H65.9787V90.1882H57.4466V99.2001ZM74.5108 99.2001H83.0429V90.1882H74.5108V99.2001ZM91.5749 99.2001H100.107V90.1882H91.5749V99.2001ZM108.639 99.2001H117.171V90.1882H108.639V99.2001ZM57.4466 81.1763H65.9787V72.1644H57.4466V81.1763ZM74.5108 81.1763H83.0429V72.1644H74.5108V81.1763ZM91.5749 81.1763H100.107V72.1644H91.5749V81.1763ZM108.639 81.1763H117.171V72.1644H108.639V81.1763Z" fill="#12171C"/>
<rect x="102.05" y="103.493" width="50.9245" height="53.7883" rx="10" fill="#41FFC9"/>
<path d="M143.426 110.217H111.598C109.841 110.217 108.416 111.722 108.416 113.579V147.196C108.416 149.053 109.841 150.558 111.598 150.558H143.426C145.184 150.558 146.609 149.053 146.609 147.196V113.579C146.609 111.722 145.184 110.217 143.426 110.217Z" stroke="#12171C" stroke-width="4" stroke-linecap="round" stroke-linejoin="round"/>
<path d="M116.903 123.664H138.122V134.87H116.903V123.664Z" stroke="#12171C" stroke-width="4" stroke-linecap="round" stroke-linejoin="round"/>
<path d="M127.512 119.182V142.714" stroke="#12171C" stroke-width="4" stroke-linecap="round"/>
</svg>
