<svg width="420" height="139" viewBox="0 0 420 139" fill="none" xmlns="http://www.w3.org/2000/svg">
<path d="M76.2522 78.3332C76.2522 93.9832 60.8727 106.668 41.9026 106.668C22.9324 106.668 23.8409 96.3918 23.8409 80.7419C23.8409 65.0919 22.9342 49.9999 41.9026 49.9999C60.871 49.9999 76.2522 62.685 76.2522 78.3332Z" fill="#41FFC9"/>
<path d="M56.4183 110.563C56.4183 126.018 41.0388 138.544 22.0686 138.544C3.09851 138.544 4.00693 128.396 4.00693 112.942C4.00693 97.4876 3.10023 82.5842 22.0686 82.5842C41.0371 82.5842 56.4183 95.1108 56.4183 110.563Z" fill="#07BBD3"/>
<path d="M97.7552 71.0053H110.215C120.428 71.0053 125.537 75.3243 125.537 83.9625C125.537 88.2024 124.05 91.2937 121.075 93.229C123.77 93.6487 125.888 94.9844 127.432 97.2339C128.974 99.4858 129.747 102.131 129.747 105.165C129.747 109.616 128.246 112.978 125.243 115.256C122.24 117.534 118.298 118.671 113.414 118.671H97.7552V71.0029V71.0053ZM106.427 91.5023H110.3C115.127 91.5023 117.539 89.2001 117.539 84.5908C117.539 79.6698 115.153 77.2093 110.383 77.2093H106.427V91.5023ZM106.427 112.234H111.225C117.847 112.234 121.158 109.618 121.158 104.38C121.158 99.668 117.679 97.313 110.72 97.313H106.427V112.234Z" fill="white"/>
<path d="M152.811 118.671H144.14V71.0029H152.811V118.671Z" fill="white"/>
<path d="M166.447 94.917C166.447 87.9816 168.847 82.0509 173.646 77.1299C178.444 72.2089 184.49 69.7484 191.788 69.7484C199.086 69.7484 205.116 72.2089 209.888 77.1299C214.658 82.0509 217.044 87.9672 217.044 94.8763C217.044 101.785 214.672 107.69 209.931 112.584C205.187 117.481 199.141 119.927 191.788 119.927C184.435 119.927 178.375 117.493 173.605 112.625C168.836 107.757 166.449 101.855 166.449 94.917H166.447ZM175.455 94.4062C175.455 99.0658 177.026 103.162 180.171 106.697C183.313 110.232 187.187 111.997 191.788 111.997C196.726 111.997 200.683 110.308 203.657 106.932C206.631 103.555 208.118 99.38 208.118 94.4062C208.118 89.6938 206.631 85.7297 203.657 82.509C200.683 79.2882 196.712 77.6791 191.745 77.6791C186.779 77.6791 182.822 79.3026 179.877 82.5473C176.931 85.7944 175.458 89.7466 175.458 94.4062H175.455Z" fill="white"/>
<path d="M230.172 71.0055H244.484C251.78 71.0055 257.714 73.2573 262.289 77.7587C266.862 82.2624 269.151 87.9412 269.151 94.8C269.151 101.659 266.836 107.352 262.206 111.88C257.576 116.41 251.642 118.674 244.401 118.674H230.174V71.0055H230.172ZM238.843 111.369H241.789C254.023 111.369 260.14 105.86 260.14 94.8383C260.14 83.8164 254.023 78.3078 241.789 78.3078H238.843V111.369Z" fill="white"/>
<path d="M288.762 69.7484L317.637 105.637L317.805 71.005H326.391V119.616H319.909L290.951 83.8064L290.866 118.673H282.194V69.7484H288.762Z" fill="white"/>
<path d="M341.882 71.0055H356.194C363.49 71.0055 369.424 73.2573 374 77.7587C378.573 82.2624 380.862 87.9412 380.862 94.8C380.862 101.659 378.547 107.352 373.917 111.88C369.287 116.41 363.352 118.674 356.111 118.674H341.885V71.0055H341.882ZM350.554 111.369H353.5C365.734 111.369 371.851 105.86 371.851 94.8383C371.851 83.8164 365.734 78.3078 353.5 78.3078H350.554V111.369Z" fill="white"/>
<path d="M8.3061 30L0.237915 0.909058H4.85439L10.522 23.4375H10.7919L16.6868 0.909058H21.2606L27.1555 23.4517H27.4254L33.0788 0.909058H37.7095L29.6271 30H25.2095L19.0873 8.2102H18.8601L12.7379 30H8.3061Z" fill="white"/>
<path d="M41.7116 30V0.909058H46.1008V13.5511H60.6037V0.909058H65.0071V30H60.6037V17.3153H46.1008V30H41.7116Z" fill="white"/>
<path d="M69.1548 0.909058H74.1406L81.74 14.1335H82.0525L89.652 0.909058H94.6378L84.0838 18.5795V30H79.7088V18.5795L69.1548 0.909058Z" fill="white"/>
<path d="M401.188 104.614V104.182C401.218 101.364 401.498 99.1212 402.028 97.4545C402.574 95.7878 403.347 94.4394 404.347 93.4091C405.347 92.3788 406.551 91.4394 407.96 90.5909C408.869 90.0151 409.688 89.3712 410.415 88.6591C411.142 87.9469 411.718 87.1288 412.142 86.2045C412.566 85.2803 412.778 84.2575 412.778 83.1363C412.778 81.7878 412.46 80.6212 411.824 79.6363C411.188 78.6515 410.339 77.8939 409.278 77.3636C408.233 76.8181 407.066 76.5454 405.778 76.5454C404.612 76.5454 403.498 76.7878 402.438 77.2727C401.377 77.7575 400.498 78.5151 399.801 79.5454C399.104 80.5606 398.703 81.8712 398.597 83.4772H391.688C391.794 80.75 392.483 78.4469 393.756 76.5681C395.028 74.6742 396.71 73.2424 398.801 72.2727C400.907 71.303 403.233 70.8181 405.778 70.8181C408.566 70.8181 411.006 71.3409 413.097 72.3863C415.188 73.4166 416.809 74.8636 417.96 76.7272C419.127 78.5757 419.71 80.7348 419.71 83.2045C419.71 84.9015 419.445 86.4318 418.915 87.7954C418.384 89.1439 417.627 90.3484 416.642 91.4091C415.672 92.4697 414.506 93.4091 413.142 94.2272C411.854 95.0303 410.809 95.8636 410.006 96.7272C409.218 97.5909 408.642 98.6136 408.278 99.7954C407.915 100.977 407.718 102.439 407.688 104.182V104.614H401.188ZM404.619 118.432C403.377 118.432 402.309 117.992 401.415 117.114C400.521 116.22 400.074 115.144 400.074 113.886C400.074 112.644 400.521 111.583 401.415 110.705C402.309 109.811 403.377 109.364 404.619 109.364C405.847 109.364 406.907 109.811 407.801 110.705C408.71 111.583 409.165 112.644 409.165 113.886C409.165 114.72 408.953 115.485 408.528 116.182C408.119 116.864 407.574 117.409 406.892 117.818C406.21 118.227 405.453 118.432 404.619 118.432Z" fill="white"/>
</svg>
