<svg width="38" height="38" viewBox="0 0 38 38" fill="none" xmlns="http://www.w3.org/2000/svg">
<path d="M28.8709 24.4305C27.9627 24.4302 27.0638 24.6116 26.2273 24.9638C25.3907 25.3161 24.6336 25.832 24.0007 26.4812L16.1561 21.4554C16.7732 19.8781 16.7732 18.1273 16.1561 16.55L24.0007 11.5242C25.179 12.7274 26.7636 13.4515 28.4471 13.5563C30.1306 13.6611 31.7932 13.139 33.1125 12.0913C34.4318 11.0437 35.3139 9.54499 35.5876 7.88589C35.8614 6.2268 35.5074 4.52548 34.5942 3.11178C33.6811 1.69808 32.2738 0.672724 30.6453 0.234501C29.0168 -0.203722 27.283 -0.0235893 25.7802 0.739975C24.2774 1.50354 23.1125 2.79613 22.5114 4.36716C21.9104 5.93818 21.916 7.6757 22.5271 9.24286L14.6825 14.2687C13.7378 13.302 12.5254 12.638 11.2003 12.3617C9.87511 12.0854 8.49739 12.2093 7.24323 12.7175C5.98906 13.2257 4.91543 14.0952 4.15958 15.2148C3.40373 16.3344 3 17.6532 3 19.0027C3 20.3522 3.40373 21.671 4.15958 22.7906C4.91543 23.9102 5.98906 24.7797 7.24323 25.2879C8.49739 25.7962 9.87511 25.92 11.2003 25.6437C12.5254 25.3674 13.7378 24.7035 14.6825 23.7368L22.5271 28.7626C22.0016 30.1136 21.9238 31.5969 22.3052 32.9952C22.6866 34.3935 23.5071 35.6334 24.6465 36.5332C25.786 37.4331 27.1845 37.9457 28.6374 37.9959C30.0902 38.0462 31.521 37.6314 32.7203 36.8125C33.9196 35.9935 34.8243 34.8133 35.302 33.4447C35.7797 32.0761 35.8053 30.591 35.375 29.2069C34.9447 27.8228 34.0811 26.6124 32.9107 25.7529C31.7403 24.8934 30.3246 24.43 28.8709 24.4305ZM28.8709 2.71933C29.6786 2.71933 30.4682 2.95808 31.1398 3.40539C31.8114 3.8527 32.3348 4.48848 32.6439 5.23233C32.9531 5.97618 33.0339 6.79469 32.8764 7.58436C32.7188 8.37403 32.3298 9.09938 31.7587 9.6687C31.1875 10.238 30.4598 10.6257 29.6676 10.7828C28.8754 10.9399 28.0542 10.8593 27.308 10.5511C26.5617 10.243 25.9239 9.72126 25.4752 9.05182C25.0264 8.38237 24.7869 7.59531 24.7869 6.79018C24.7869 5.71052 25.2172 4.67509 25.9831 3.91165C26.7489 3.14822 27.7877 2.71933 28.8709 2.71933ZM9.81234 23.0736C9.00461 23.0736 8.21501 22.8348 7.54341 22.3875C6.8718 21.9402 6.34835 21.3044 6.03925 20.5606C5.73014 19.8167 5.64926 18.9982 5.80684 18.2085C5.96443 17.4189 6.35339 16.6935 6.92454 16.1242C7.49569 15.5549 8.22338 15.1672 9.0156 15.0101C9.80781 14.853 10.629 14.9336 11.3752 15.2417C12.1215 15.5499 12.7593 16.0716 13.208 16.7411C13.6568 17.4105 13.8963 18.1976 13.8963 19.0027C13.8963 20.0824 13.466 21.1178 12.7001 21.8812C11.9342 22.6447 10.8955 23.0736 9.81234 23.0736ZM28.8709 35.2861C28.0631 35.2861 27.2735 35.0473 26.6019 34.6C25.9303 34.1527 25.4069 33.5169 25.0978 32.7731C24.7887 32.0292 24.7078 31.2107 24.8654 30.4211C25.0229 29.6314 25.4119 28.906 25.9831 28.3367C26.5542 27.7674 27.2819 27.3797 28.0741 27.2226C28.8663 27.0656 29.6875 27.1462 30.4337 27.4543C31.18 27.7624 31.8178 28.2842 32.2666 28.9536C32.7153 29.6231 32.9548 30.4101 32.9548 31.2153C32.9548 32.2949 32.5245 33.3303 31.7587 34.0938C30.9928 34.8572 29.954 35.2861 28.8709 35.2861Z" fill="white"/>
</svg>
