<svg width="24" height="24" viewBox="0 0 24 24" fill="none" xmlns="http://www.w3.org/2000/svg">
<path fill-rule="evenodd" clip-rule="evenodd" d="M6.00633 6.5C6.02321 6.46681 6.07042 6.39634 6.19525 6.29094C6.42458 6.0973 6.81573 5.87785 7.38659 5.67397C8.5196 5.26933 10.1506 5 12 5C13.8494 5 15.4804 5.26933 16.6134 5.67397C17.1843 5.87785 17.5754 6.0973 17.8048 6.29094C17.9296 6.39634 17.9768 6.46681 17.9937 6.5C17.9768 6.53319 17.9296 6.60366 17.8048 6.70906C17.5754 6.9027 17.1843 7.12215 16.6134 7.32603C15.4804 7.73067 13.8494 8 12 8C10.1506 8 8.5196 7.73067 7.38659 7.32603C6.81573 7.12215 6.42458 6.9027 6.19525 6.70906C6.07042 6.60366 6.02321 6.53319 6.00633 6.5ZM6.71392 3.79049C8.1144 3.29032 9.98341 3 12 3C14.0166 3 15.8856 3.29032 17.2861 3.79049C17.982 4.03902 18.616 4.35829 19.0951 4.76283C19.4587 5.06989 19.7965 5.48399 19.9345 6H20V18C20 18.7524 19.64 19.3855 19.1617 19.8702C18.6876 20.3505 18.0512 20.7373 17.3437 21.0405C15.9251 21.6484 14.0352 22 12 22C9.96482 22 8.07486 21.6484 6.65633 21.0405C5.94885 20.7373 5.31243 20.3505 4.83835 19.8702C4.36003 19.3855 4 18.7524 4 18V6H4.06553C4.20349 5.48399 4.54129 5.06989 4.90494 4.76283C5.38405 4.35829 6.01803 4.03902 6.71392 3.79049ZM6 18C6 18.076 6.03173 18.2321 6.26184 18.4653C6.4962 18.7028 6.8849 18.9625 7.44417 19.2022C8.55915 19.68 10.1692 20 12 20C13.8308 20 15.4409 19.68 16.5558 19.2022C17.1151 18.9625 17.5038 18.7028 17.7382 18.4653C17.9683 18.2321 18 18.076 18 18V16.7223C17.7906 16.8372 17.5708 16.9431 17.3437 17.0405C15.9251 17.6484 14.0352 18 12 18C9.96482 18 8.07486 17.6484 6.65633 17.0405C6.42923 16.9431 6.20944 16.8372 6 16.7223V18ZM18 12.7223V14C18 14.076 17.9683 14.2321 17.7382 14.4653C17.5038 14.7028 17.1151 14.9625 16.5558 15.2022C15.4409 15.68 13.8308 16 12 16C10.1692 16 8.55915 15.68 7.44417 15.2022C6.8849 14.9625 6.4962 14.7028 6.26184 14.4653C6.03173 14.2321 6 14.076 6 14V12.7223C6.20944 12.8372 6.42923 12.9431 6.65633 13.0405C8.07486 13.6484 9.96482 14 12 14C14.0352 14 15.9251 13.6484 17.3437 13.0405C17.5708 12.9431 17.7906 12.8372 18 12.7223ZM6 10C6 10.076 6.03173 10.2321 6.26184 10.4653C6.4962 10.7028 6.8849 10.9625 7.44417 11.2022C8.55915 11.68 10.1692 12 12 12C13.8308 12 15.4409 11.68 16.5558 11.2022C17.1151 10.9625 17.5038 10.7028 17.7382 10.4653C17.9683 10.2321 18 10.076 18 10V8.91726C17.7726 9.02403 17.5333 9.12123 17.2861 9.20951C15.8856 9.70968 14.0166 10 12 10C9.98341 10 8.1144 9.70968 6.71392 9.20951C6.46674 9.12123 6.22738 9.02403 6 8.91726V10Z" fill="#009BAF"/>
</svg>
