<svg width="54" height="54" viewBox="0 0 54 54" fill="none" xmlns="http://www.w3.org/2000/svg">
<path d="M13.5 49.5C12.2625 49.5 11.2028 49.059 10.3208 48.177C9.43875 47.295 8.9985 46.236 9 45V22.5C9 21.2625 9.441 20.2028 10.323 19.3208C11.205 18.4388 12.264 17.9985 13.5 18H15.75V13.5C15.75 10.3875 16.8473 7.734 19.0418 5.5395C21.2363 3.345 23.889 2.2485 27 2.25C30.1125 2.25 32.766 3.34725 34.9605 5.54175C37.155 7.73625 38.2515 10.389 38.25 13.5V18H40.5C41.7375 18 42.7973 18.441 43.6793 19.323C44.5613 20.205 45.0015 21.264 45 22.5V45C45 46.2375 44.559 47.2972 43.677 48.1792C42.795 49.0612 41.736 49.5015 40.5 49.5H13.5ZM27 38.25C28.2375 38.25 29.2973 37.809 30.1793 36.927C31.0613 36.045 31.5015 34.986 31.5 33.75C31.5 32.5125 31.059 31.4528 30.177 30.5708C29.295 29.6888 28.236 29.2485 27 29.25C25.7625 29.25 24.7028 29.691 23.8208 30.573C22.9388 31.455 22.4985 32.514 22.5 33.75C22.5 34.9875 22.941 36.0473 23.823 36.9293C24.705 37.8113 25.764 38.2515 27 38.25ZM20.25 18H33.75V13.5C33.75 11.625 33.0938 10.0313 31.7813 8.71875C30.4688 7.40625 28.875 6.75 27 6.75C25.125 6.75 23.5313 7.40625 22.2188 8.71875C20.9063 10.0313 20.25 11.625 20.25 13.5V18Z" fill="white"/>
</svg>
