<svg width="36" height="36" viewBox="0 0 36 36" fill="none" xmlns="http://www.w3.org/2000/svg">
<g clip-path="url(#clip0_432_7057)">
<path fill-rule="evenodd" clip-rule="evenodd" d="M18 36C27.9411 36 36 27.9411 36 18C36 8.05887 27.9411 0 18 0C8.05887 0 0 8.05887 0 18C0 27.9411 8.05887 36 18 36ZM19.86 22.956H15.96L14.4 7.2H21.42L19.86 22.956ZM17.91 30.6C19.5685 30.6 20.913 29.273 20.913 27.636C20.913 25.999 19.5685 24.672 17.91 24.672C16.2515 24.672 14.907 25.999 14.907 27.636C14.907 29.273 16.2515 30.6 17.91 30.6Z" fill="#009BAF"/>
</g>
<defs>
<clipPath id="clip0_432_7057">
<rect width="36" height="36" fill="white"/>
</clipPath>
</defs>
</svg>
