<svg width="24" height="25" viewBox="0 0 24 25" fill="none" xmlns="http://www.w3.org/2000/svg">
<g opacity="0.4">
<path d="M17.1034 15.9039H16.2122L15.8963 15.5995C16.6013 14.7809 17.1166 13.8167 17.4052 12.7759C17.6939 11.735 17.7488 10.6433 17.566 9.57875C17.0357 6.44435 14.4184 3.94134 11.2596 3.558C10.1491 3.41759 9.02116 3.53294 7.9621 3.89521C6.90304 4.25749 5.94094 4.8571 5.14942 5.64816C4.3579 6.43921 3.75794 7.40075 3.39545 8.45919C3.03295 9.51763 2.91754 10.6449 3.05803 11.7548C3.4416 14.9117 5.94608 17.5275 9.08232 18.0574C10.1475 18.2401 11.2398 18.1853 12.2813 17.8968C13.3228 17.6083 14.2875 17.0934 15.1066 16.3887L15.4112 16.7044V17.5951L20.2058 22.3869C20.6683 22.8492 21.4242 22.8492 21.8867 22.3869C22.3493 21.9247 22.3493 21.1693 21.8867 20.707L17.1034 15.9039ZM10.3346 15.9039C7.52548 15.9039 5.25791 13.6377 5.25791 10.8303C5.25791 8.02283 7.52548 5.75659 10.3346 5.75659C13.1436 5.75659 15.4112 8.02283 15.4112 10.8303C15.4112 13.6377 13.1436 15.9039 10.3346 15.9039Z" fill="#69747F"/>
</g>
</svg>
