<svg width="104" height="72" viewBox="0 0 104 72" fill="none" xmlns="http://www.w3.org/2000/svg">
<path fill-rule="evenodd" clip-rule="evenodd" d="M36.9735 27.5525C39.0478 27.5525 40.7293 25.8618 40.7293 23.7763C40.7293 21.6907 39.0478 20 36.9735 20C34.8992 20 33.2176 21.6907 33.2176 23.7763C33.2176 25.8618 34.8992 27.5525 36.9735 27.5525ZM57.6294 23.6501C58.8954 21.7986 61.6144 21.7986 62.8804 23.6501L78.8339 46.9812C80.2873 49.1067 78.7738 51.9995 76.2084 51.9995L28.1915 52C25.6467 52 24.1289 49.1485 25.5405 47.0196L35.5947 31.8563C36.8558 29.9543 39.6356 29.9543 40.8968 31.8563L46.3719 40.1136L57.6294 23.6501Z" fill="#C3C7CC"/>
</svg>
