<svg width="36" height="36" viewBox="0 0 36 36" fill="none" xmlns="http://www.w3.org/2000/svg">
<g clip-path="url(#clip0_530_7688)">
<path fill-rule="evenodd" clip-rule="evenodd" d="M18 36C27.9411 36 36 27.9411 36 18C36 8.05887 27.9411 0 18 0C8.05887 0 0 8.05887 0 18C0 27.9411 8.05887 36 18 36ZM23.1125 21.188H24.1319L29.6032 26.6819C30.1323 27.2106 30.1323 28.0747 29.6032 28.6034C29.0741 29.1322 28.2096 29.1322 27.6805 28.6034L22.1963 23.1224V22.1036L21.8479 21.7425C20.911 22.5485 19.8075 23.1375 18.6162 23.4675C17.425 23.7974 16.1755 23.8602 14.9571 23.6512C11.3698 23.0451 8.50511 20.0531 8.06638 16.4421C7.90568 15.1726 8.03769 13.8831 8.45232 12.6725C8.86695 11.4618 9.5532 10.362 10.4586 9.45713C11.3639 8.55229 12.4644 7.86644 13.6758 7.45206C14.8872 7.03767 16.1774 6.90573 17.4476 7.06634C21.0607 7.50482 24.0545 10.3678 24.661 13.9531C24.8701 15.1707 24.8073 16.4194 24.4771 17.61C24.147 18.8005 23.5576 19.9034 22.7512 20.8398L23.1125 21.188ZM10.5827 15.3846C10.5827 18.5958 13.1764 21.188 16.3895 21.188C19.6026 21.188 22.1963 18.5958 22.1963 15.3846C22.1963 12.1733 19.6026 9.58115 16.3895 9.58115C13.1764 9.58115 10.5827 12.1733 10.5827 15.3846Z" fill="#009BAF"/>
</g>
<defs>
<clipPath id="clip0_530_7688">
<rect width="36" height="36" fill="white"/>
</clipPath>
</defs>
</svg>
