<svg width="72" height="72" viewBox="0 0 72 72" fill="none" xmlns="http://www.w3.org/2000/svg">
<path fill-rule="evenodd" clip-rule="evenodd" d="M40.3875 11.4005C40.7781 10.6881 41.0002 9.8702 41.0002 9.00042C41.0002 8.81681 40.9903 8.63551 40.971 8.45703C52.664 10.6331 61.7079 20.345 62.873 32.363C62.2946 32.1292 61.6624 32.0004 61.0002 32.0004C60.5976 32.0004 60.2062 32.048 59.8312 32.1378C58.5888 21.6845 50.6277 13.2922 40.3875 11.4005ZM31.6128 11.4005C31.2223 10.6881 31.0002 9.8702 31.0002 9.00042C31.0002 8.81681 31.0101 8.63551 31.0294 8.45703C19.4312 10.6155 10.4392 20.1881 9.15723 32.0712C9.43126 32.0247 9.71288 32.0004 10.0002 32.0004C10.7624 32.0004 11.4848 32.171 12.1313 32.4761C13.2404 21.8659 21.2624 13.3125 31.6128 11.4005ZM12.7946 41.1473C11.9968 41.6859 11.0352 42.0004 10.0002 42.0004C9.97213 42.0004 9.94416 42.0002 9.91623 41.9997C12.9993 53.5183 23.5092 62.0004 36.0002 62.0004C48.5361 62.0004 59.0767 53.4571 62.1171 41.8752C61.758 41.9571 61.3841 42.0004 61.0002 42.0004C60.3185 42.0004 59.6687 41.864 59.0765 41.617C56.204 51.6541 46.96 59.0004 36.0002 59.0004C24.8701 59.0004 15.5096 51.424 12.7946 41.1473Z" fill="#69747F"/>
<path d="M36.5 61L39.5311 66.25H33.4689L36.5 61Z" fill="#009BAF"/>
<path fill-rule="evenodd" clip-rule="evenodd" d="M36 52C34.6498 52 33.3363 51.8426 32.077 51.5451L32.077 47.3976C31.5155 47.2201 30.9705 47.0055 30.4448 46.7567L27.4846 49.7168C25.1899 48.3862 23.2351 46.5343 21.7822 44.3231L24.6904 41.4149C24.3574 40.8292 24.0687 40.2151 23.8287 39.5771H19.6233C19.2171 38.1209 19 36.5858 19 35C19 33.8818 19.108 32.7889 19.314 31.731H23.4145C23.62 30.9373 23.8987 30.1731 24.2428 29.4459L21.2826 26.4856C22.6131 24.1908 24.4649 22.2359 26.676 20.7828L29.5841 23.691C30.3678 23.2454 31.2024 22.8789 32.077 22.6024L32.077 18.4549C33.3363 18.1574 34.6498 18 36 18C37.3503 18 38.6638 18.1574 39.9232 18.4549L39.9231 22.6024C40.7973 22.8788 41.6315 23.2451 42.4149 23.6904L45.3231 20.7822C47.5343 22.2351 49.3862 24.1899 50.7168 26.4846L47.7567 29.4448C48.101 30.1723 48.3799 30.9369 48.5855 31.731H52.686C52.892 32.7889 53 33.8818 53 35C53 36.5858 52.7829 38.1209 52.3767 39.5771H48.1713C47.9312 40.2155 47.6422 40.8299 47.309 41.4159L50.2172 44.324C48.7641 46.5351 46.8092 48.3869 44.5144 49.7174L41.5541 46.7572C41.0288 47.0058 40.4842 47.2202 39.9231 47.3976L39.9231 51.5451C38.6638 51.8426 37.3503 52 36 52ZM36 43C40.4183 43 44 39.4183 44 35C44 30.5817 40.4183 27 36 27C31.5817 27 28 30.5817 28 35C28 39.4183 31.5817 43 36 43ZM36 44C40.9706 44 45 39.9706 45 35C45 30.0294 40.9706 26 36 26C31.0294 26 27 30.0294 27 35C27 39.9706 31.0294 44 36 44ZM36 39C38.2091 39 40 37.2091 40 35C40 32.7909 38.2091 31 36 31C33.7909 31 32 32.7909 32 35C32 37.2091 33.7909 39 36 39Z" fill="#69747F"/>
<circle cx="10" cy="37" r="3" stroke="#009BAF" stroke-width="2"/>
<circle cx="61" cy="37" r="3" stroke="#009BAF" stroke-width="2"/>
<circle cx="36" cy="9" r="3" stroke="#009BAF" stroke-width="2"/>
</svg>
