<svg width="72" height="72" viewBox="0 0 72 72" fill="none" xmlns="http://www.w3.org/2000/svg">
<path fill-rule="evenodd" clip-rule="evenodd" d="M37.5088 50.3432L42.4114 67.9028L46.6894 64.6319L52.0431 65.2137L47.0216 47.2285L45.2683 47.3327C44.7845 47.3614 44.3277 47.5648 43.9826 47.9051L41.3167 50.5341C40.7614 51.0816 39.9386 51.2565 39.2087 50.9821L37.5088 50.3432Z" fill="#69747F"/>
<path fill-rule="evenodd" clip-rule="evenodd" d="M23.9622 47.2871L18.957 65.2138L24.3107 64.6321L28.5887 67.903L33.6085 49.9234L30.7914 50.9823C30.0615 51.2566 29.2387 51.0817 28.6834 50.5342L26.0175 47.9053C25.6724 47.565 25.2156 47.3616 24.7318 47.3328L23.9622 47.2871Z" fill="#69747F"/>
<path fill-rule="evenodd" clip-rule="evenodd" d="M36.5776 3.68814C35.9206 3.26802 35.0794 3.26802 34.4225 3.68814L31.736 5.4062C31.3277 5.66729 30.8386 5.77127 30.3594 5.69881L27.2064 5.22197C26.4354 5.10537 25.6669 5.44752 25.2376 6.09851L23.4822 8.76074C23.2154 9.16531 22.8108 9.45926 22.3436 9.58796L19.2692 10.4348C18.5174 10.6419 17.9546 11.267 17.8272 12.0363L17.3064 15.1824C17.2272 15.6605 16.9772 16.0936 16.6027 16.4012L14.1385 18.4253C13.536 18.9202 13.276 19.7203 13.4726 20.4749L14.2764 23.5608C14.3985 24.0298 14.3463 24.5271 14.1293 24.9604L12.7015 27.8118C12.3523 28.509 12.4402 29.3456 12.9267 29.9551L14.9162 32.4472C15.2185 32.826 15.3731 33.3016 15.3511 33.7857L15.2064 36.9713C15.1711 37.7503 15.5917 38.4788 16.284 38.8377L19.1151 40.3052C19.5453 40.5282 19.88 40.8999 20.0568 41.3511L21.2204 44.3201C21.5049 45.0461 22.1854 45.5405 22.9639 45.5868L26.1471 45.7759C26.6309 45.8047 27.0877 46.0081 27.4328 46.3484L29.7034 48.5874C30.2586 49.1349 31.0814 49.3098 31.8114 49.0355L34.7963 47.9135C35.25 47.743 35.7501 47.743 36.2037 47.9135L39.1887 49.0355C39.9186 49.3098 40.7414 49.1349 41.2967 48.5874L43.5672 46.3484C43.9123 46.0081 44.3692 45.8047 44.8529 45.7759L48.0362 45.5868C48.8146 45.5405 49.4951 45.0461 49.7797 44.3201L50.9432 41.3511C51.1201 40.8999 51.4547 40.5282 51.8849 40.3052L54.7161 38.8377C55.4084 38.4788 55.829 37.7503 55.7936 36.9713L55.649 33.7857C55.627 33.3016 55.7815 32.826 56.0839 32.4472L58.0733 29.9551C58.5598 29.3456 58.6477 28.509 58.2986 27.8118L56.8708 24.9604C56.6538 24.5271 56.6015 24.0298 56.7236 23.5608L57.5275 20.4749C57.724 19.7203 57.4641 18.9202 56.8615 18.4253L54.3974 16.4012C54.0229 16.0936 53.7728 15.6605 53.6937 15.1824L53.1728 12.0363C53.0455 11.267 52.4826 10.6419 51.7308 10.4348L48.6564 9.58796C48.1892 9.45926 47.7846 9.16531 47.5179 8.76074L45.7624 6.09851C45.3332 5.44752 44.5647 5.10537 43.7937 5.22197L40.6406 5.69881C40.1615 5.77127 39.6723 5.66729 39.264 5.4062L36.5776 3.68814ZM35.5 40.999C43.5081 40.999 50 34.5072 50 26.499C50 18.4909 43.5081 11.999 35.5 11.999C27.4919 11.999 21 18.4909 21 26.499C21 34.5072 27.4919 40.999 35.5 40.999Z" fill="#69747F"/>
<path d="M35.5 17L38.4595 22.4266L44.535 23.5643L40.2886 28.0559L41.084 34.1857L35.5 31.535L29.916 34.1857L30.7114 28.0559L26.465 23.5643L32.5405 22.4266L35.5 17Z" fill="#009BAF"/>
</svg>
