<svg width="157" height="41" viewBox="0 0 157 41" fill="none" xmlns="http://www.w3.org/2000/svg">
<path d="M31.5934 11.8042C31.4464 10.9975 31.1992 10.27 30.9053 9.62858C30.8385 9.4831 30.7984 9.39713 30.7984 9.39713C30.5846 8.96068 30.3574 8.57051 30.1303 8.22003C30.1303 8.22003 30.1303 8.22003 30.1303 8.21342C29.6426 7.38019 28.9678 6.64616 28.2062 5.9981C27.3711 5.1781 26.3757 4.44406 25.1998 3.86213C23.9438 3.24051 22.7546 2.8239 21.6523 2.53955C21.5721 2.51309 21.5254 2.49987 21.5254 2.49987C17.8108 1.57406 15.2053 2.2089 15.2053 2.2089C8.90523 3.24713 9.55327 11.1694 9.6468 15.7455C10.6356 15.772 11.8448 15.9042 13.201 16.2415C13.201 16.2415 13.2478 16.2481 13.328 16.2745C14.4303 16.5589 15.6262 16.9755 16.8755 17.5971C18.0513 18.1791 19.0468 18.9131 19.8819 19.7331C20.6368 20.3812 21.3183 21.1152 21.806 21.9484C21.806 21.9484 21.806 21.9484 21.806 21.955C22.307 22.7155 22.8014 23.6876 23.1087 24.8383C29.215 22.1997 31.0589 18.3973 31.5867 15.9373C31.5867 15.9373 31.5867 15.9373 31.5867 15.9307C31.5934 15.9042 31.6001 15.8778 31.6001 15.8513C31.6001 15.8381 31.6001 15.8183 31.6068 15.805C31.9475 14.3634 31.8272 12.9483 31.5867 11.8175L31.5934 11.8042Z" fill="#41FFC9"/>
<path d="M21.7999 21.9418C21.3122 21.1085 20.6375 20.3745 19.8758 19.7264C19.0407 18.9064 18.0453 18.1724 16.8695 17.5905C15.6135 16.9689 14.4243 16.5523 13.3219 16.2679C13.2418 16.2414 13.195 16.2282 13.195 16.2282C11.8388 15.891 10.6295 15.7653 9.64078 15.7323C7.9238 15.6793 6.8749 15.9373 6.8749 15.9373C0.214095 17.035 1.32312 25.8302 1.32312 30.2277C1.32312 34.3343 1.81082 36.0405 2.77286 37.1448C2.77286 37.1448 3.70818 38.8377 7.73673 39.0031C8.39814 39.056 9.12635 39.0626 9.92137 39.0031C11.4379 38.9766 13.0413 38.7385 14.5712 38.1698C14.598 38.1698 14.618 38.1566 14.6447 38.15H14.618C14.8118 38.0772 15.0055 38.0045 15.1992 37.9252C16.3951 37.4027 17.3906 36.8406 18.2457 36.2521C18.2457 36.2521 20.3168 35.1147 21.8133 32.6084V32.6216C21.8534 32.5555 21.8868 32.4893 21.9269 32.4232C21.987 32.324 22.0404 32.2182 22.0939 32.119C23.6038 29.2755 23.6305 26.7956 23.1027 24.8316C22.7954 23.6876 22.301 22.7155 21.7999 21.9484C21.7999 21.9484 21.7999 21.9484 21.7999 21.9418Z" fill="#07BBD3"/>
<path d="M40.8008 12.2007H47.0607C50.9423 12.2007 53.9086 13.3117 53.9086 16.8033C53.9086 18.5226 52.9399 20.2949 51.3298 20.8504V20.976C53.3741 21.4587 54.8773 22.8739 54.8773 25.4C54.8773 29.1694 51.7106 30.9152 47.5484 30.9152H40.8075V12.2073L40.8008 12.2007ZM46.7801 19.8121C49.1786 19.8121 50.2275 18.8533 50.2275 17.3587C50.2275 15.7121 49.1051 15.0575 46.8269 15.0575H44.5755V19.8121H46.7735H46.7801ZM47.2144 28.0254C49.7932 28.0254 51.1962 27.1128 51.1962 25.1686C51.1962 23.35 49.8199 22.5896 47.2144 22.5896H44.5821V28.0254H47.2144Z" fill="#69747F"/>
<path d="M61.5449 12.2007H65.3263V30.9086H61.5449V12.2007Z" fill="#69747F"/>
<path d="M72.375 21.4788C72.375 15.3883 75.8223 11.8438 80.833 11.8438C85.8436 11.8438 89.2909 15.4081 89.2909 21.4788C89.2909 27.5494 85.8436 31.2658 80.833 31.2658C75.8223 31.2658 72.375 27.5494 72.375 21.4788ZM85.4227 21.4788C85.4227 17.4581 83.6322 15.0576 80.8263 15.0576C78.0203 15.0576 76.2298 17.4581 76.2298 21.4788C76.2298 25.4994 78.0203 28.0255 80.8263 28.0255C83.6322 28.0255 85.4227 25.4729 85.4227 21.4788Z" fill="#69747F"/>
<path d="M96.3329 12.2007H101.517C107.289 12.2007 110.864 15.1567 110.864 21.4786C110.864 27.8005 107.289 30.9086 101.718 30.9086H96.3262V12.2007H96.3329ZM101.283 27.8997C104.811 27.8997 107.002 26.0283 107.002 21.4786C107.002 16.9289 104.804 15.1831 101.283 15.1831H100.108V27.8997H101.283Z" fill="#69747F"/>
<path d="M117.911 12.2007H121.766L127.257 22.1597L129.148 26.2068H129.275C129.068 24.2626 128.787 21.7828 128.787 19.66V12.2007H132.362V30.9086H128.527L123.062 20.8967L121.145 16.876H121.018C121.198 18.8996 121.479 21.2471 121.479 23.4029V30.9152H117.904V12.2073L117.911 12.2007Z" fill="#69747F"/>
<path d="M140.386 12.2007H145.57C151.342 12.2007 154.916 15.1567 154.916 21.4786C154.916 27.8005 151.342 30.9086 145.77 30.9086H140.379V12.2007H140.386ZM145.343 27.8997C148.87 27.8997 151.062 26.0283 151.062 21.4786C151.062 16.9289 148.864 15.1831 145.343 15.1831H144.167V27.8997H145.343Z" fill="#69747F"/>
</svg>
