<svg width="20" height="20" viewBox="0 0 20 20" xmlns="http://www.w3.org/2000/svg">
<g clip-path="url(#clip0_835_17208)">
<path fill-rule="evenodd" clip-rule="evenodd" d="M13.3346 7.49935C13.3346 8.3834 12.9834 9.23125 12.3583 9.85637C11.7332 10.4815 10.8854 10.8327 10.0013 10.8327C9.11725 10.8327 8.2694 10.4815 7.64428 9.85637C7.01916 9.23125 6.66797 8.3834 6.66797 7.49935C6.66797 6.61529 7.01916 5.76745 7.64428 5.14233C8.2694 4.5172 9.11725 4.16602 10.0013 4.16602C10.8854 4.16602 11.7332 4.5172 12.3583 5.14233C12.9834 5.76745 13.3346 6.61529 13.3346 7.49935ZM11.668 7.49935C11.668 7.94138 11.4924 8.3653 11.1798 8.67786C10.8673 8.99042 10.4433 9.16602 10.0013 9.16602C9.55927 9.16602 9.13535 8.99042 8.82279 8.67786C8.51023 8.3653 8.33464 7.94138 8.33464 7.49935C8.33464 7.05732 8.51023 6.6334 8.82279 6.32084C9.13535 6.00828 9.55927 5.83268 10.0013 5.83268C10.4433 5.83268 10.8673 6.00828 11.1798 6.32084C11.4924 6.6334 11.668 7.05732 11.668 7.49935Z" fill="white"/>
<path fill-rule="evenodd" clip-rule="evenodd" d="M10.0007 0.833008C4.93815 0.833008 0.833984 4.93717 0.833984 9.99967C0.833984 15.0622 4.93815 19.1663 10.0007 19.1663C15.0631 19.1663 19.1673 15.0622 19.1673 9.99967C19.1673 4.93717 15.0631 0.833008 10.0007 0.833008ZM2.50065 9.99967C2.50065 11.7413 3.09482 13.3447 4.09065 14.618C4.79001 13.6996 5.69223 12.9553 6.72684 12.4433C7.76146 11.9312 8.90044 11.6653 10.0548 11.6663C11.1943 11.6653 12.3189 11.9243 13.3431 12.4237C14.3673 12.923 15.264 13.6496 15.9648 14.548C16.6869 13.601 17.173 12.4957 17.3831 11.3235C17.5931 10.1513 17.521 8.94595 17.1727 7.80716C16.8244 6.66837 16.21 5.62888 15.3802 4.77471C14.5504 3.92053 13.5292 3.27622 12.401 2.8951C11.2727 2.51397 10.07 2.40698 8.8922 2.58299C7.71442 2.75899 6.59548 3.21292 5.62796 3.90722C4.66044 4.60152 3.87216 5.51623 3.32834 6.57567C2.78452 7.63511 2.5008 8.80881 2.50065 9.99967ZM10.0007 17.4997C8.27894 17.5023 6.60921 16.91 5.27398 15.823C5.81143 15.0536 6.52677 14.4254 7.35914 13.9919C8.19152 13.5584 9.11631 13.3323 10.0548 13.333C10.9816 13.3323 11.8952 13.5527 12.7198 13.9759C13.5443 14.3991 14.256 15.0129 14.7956 15.7663C13.4501 16.8886 11.7528 17.5021 10.0007 17.4997Z" fill="white"/>
</g>
<defs>
<clipPath id="clip0_835_17208">
<rect width="20" height="20"/>
</clipPath>
</defs>
</svg>
