<svg width="15" height="16" viewBox="0 0 15 16" fill="none" xmlns="http://www.w3.org/2000/svg">
<path d="M15 13.2414V15.4483C15 15.5946 14.9436 15.7349 14.8431 15.8384C14.7426 15.9419 14.6064 16 14.4643 16H0.535714C0.393634 16 0.257373 15.9419 0.156907 15.8384C0.0564411 15.7349 0 15.5946 0 15.4483V13.2414C0 13.0951 0.0564411 12.9547 0.156907 12.8513C0.257373 12.7478 0.393634 12.6897 0.535714 12.6897C0.677795 12.6897 0.814056 12.7478 0.914522 12.8513C1.01499 12.9547 1.07143 13.0951 1.07143 13.2414V14.8966H13.9286V13.2414C13.9286 13.0951 13.985 12.9547 14.0855 12.8513C14.1859 12.7478 14.3222 12.6897 14.4643 12.6897C14.6064 12.6897 14.7426 12.7478 14.8431 12.8513C14.9436 12.9547 15 13.0951 15 13.2414ZM7.11964 13.6331C7.17059 13.6833 7.23067 13.7227 7.29643 13.749C7.36055 13.7782 7.42989 13.7932 7.5 13.7932C7.57011 13.7932 7.63945 13.7782 7.70357 13.749C7.76933 13.7227 7.82941 13.6833 7.88036 13.6331L12.7018 8.66759C12.8027 8.56369 12.8593 8.42279 12.8593 8.27586C12.8593 8.12894 12.8027 7.98803 12.7018 7.88414C12.6009 7.78025 12.4641 7.72188 12.3214 7.72188C12.1788 7.72188 12.0419 7.78025 11.9411 7.88414L8.03571 11.9117V0.551724C8.03571 0.405398 7.97927 0.265065 7.87881 0.161596C7.77834 0.0581279 7.64208 0 7.5 0C7.35792 0 7.22166 0.0581279 7.12119 0.161596C7.02073 0.265065 6.96429 0.405398 6.96429 0.551724V11.9117L3.05893 7.88414C3.00898 7.8327 2.94968 7.79189 2.88442 7.76405C2.81916 7.73621 2.74921 7.72188 2.67857 7.72188C2.60793 7.72188 2.53799 7.73621 2.47272 7.76405C2.40746 7.79189 2.34816 7.8327 2.29821 7.88414C2.24827 7.93558 2.20864 7.99665 2.18161 8.06386C2.15458 8.13107 2.14067 8.20311 2.14067 8.27586C2.14067 8.42279 2.19734 8.56369 2.29821 8.66759L7.11964 13.6331Z" fill="#69747F"/>
</svg>
