<svg width="24" height="24" viewBox="0 0 24 24" fill="none" xmlns="http://www.w3.org/2000/svg">
<path fill-rule="evenodd" clip-rule="evenodd" d="M4 6H20V18H4V6ZM2 4H22V20H2V4ZM19 10H14V12H19V10ZM14 13H19V15H14V13ZM11.6667 10.6667C11.6667 11.3765 11.3893 12.0216 10.937 12.4995C12.1673 13.1817 13 14.4936 13 16H5C5 14.4936 5.83273 13.1817 7.06298 12.4995C6.61071 12.0216 6.33333 11.3765 6.33333 10.6667C6.33333 9.19391 7.52724 8 9 8C10.4728 8 11.6667 9.19391 11.6667 10.6667Z" fill="black"/>
<path fill-rule="evenodd" clip-rule="evenodd" d="M20 18H4V6H20V18ZM6.52287 11.656C6.64891 11.9713 6.83342 12.2569 7.06298 12.4995C6.76759 12.6633 6.49511 12.8634 6.25157 13.0938C5.71333 13.603 5.31647 14.26 5.12602 15C5.04375 15.3196 5 15.6547 5 16H13C13 15.6547 12.9562 15.3196 12.874 15C12.6835 14.26 12.2867 13.603 11.7484 13.0938C11.5049 12.8634 11.2324 12.6633 10.937 12.4995C11.1666 12.2569 11.3511 11.9713 11.4771 11.656C11.5994 11.3501 11.6667 11.0162 11.6667 10.6667C11.6667 9.19391 10.4728 8 9 8C7.52724 8 6.33333 9.19391 6.33333 10.6667C6.33333 11.0162 6.40059 11.3501 6.52287 11.656ZM11.8294 15C11.584 14.3055 11.0899 13.7277 10.4521 13.374L9.32428 12.7486L10.2108 11.812C10.4943 11.5125 10.6667 11.1108 10.6667 10.6667C10.6667 9.74619 9.92047 9 9 9C8.07953 9 7.33333 9.74619 7.33333 10.6667C7.33333 11.1108 7.50573 11.5125 7.78924 11.812L8.67572 12.7486L7.54794 13.374C6.91005 13.7277 6.41598 14.3055 6.17061 15H11.8294ZM2 4H22V20H2V4ZM14 15V13H19V15H14ZM19 10V12H14V10H19Z" fill="black"/>
</svg>
