<svg width="24" height="24" viewBox="0 0 24 24" fill="none" xmlns="http://www.w3.org/2000/svg">
<path fill-rule="evenodd" clip-rule="evenodd" d="M12 5C9.79086 5 8 6.79086 8 9C8 11.2091 9.79086 13 12 13C14.2091 13 16 11.2091 16 9C16 6.79086 14.2091 5 12 5ZM6 9C6 5.68629 8.68629 3 12 3C15.3137 3 18 5.68629 18 9C18 12.3137 15.3137 15 12 15C8.68629 15 6 12.3137 6 9Z" fill="black"/>
<path fill-rule="evenodd" clip-rule="evenodd" d="M9.41444 13.5643C6.87282 14.7217 5 17.5766 5 21H3C3 16.8693 5.26352 13.2569 8.58556 11.7441L9.41444 13.5643ZM19 21C19 17.7772 17.3382 15.0529 15.0193 13.7816L15.9807 12.0279C18.9902 13.6778 21 17.1058 21 21H19Z" fill="black"/>
<path fill-rule="evenodd" clip-rule="evenodd" d="M20 21H4V19H20V21Z" fill="black"/>
</svg>
