<svg width="20" height="20" viewBox="0 0 20 20" fill="none" xmlns="http://www.w3.org/2000/svg">
<path d="M14.7832 13.5667C14.9395 13.1099 15.5708 13.0964 15.7559 13.5256L15.7715 13.5676L15.9824 14.1838C16.0307 14.325 16.1085 14.4543 16.2109 14.5627C16.3134 14.6713 16.438 14.7564 16.5762 14.8127L16.6328 14.8342L17.249 15.0442C17.706 15.2003 17.72 15.8317 17.291 16.0168L17.249 16.0325L16.6328 16.2434C16.4917 16.2916 16.3624 16.3696 16.2539 16.4719C16.1453 16.5744 16.0593 16.6998 16.0029 16.8381L15.9824 16.8938L15.7715 17.511C15.6152 17.9674 14.9849 17.9813 14.7998 17.553L14.7832 17.511L14.5723 16.8948C14.524 16.7534 14.4463 16.6235 14.3438 16.5149C14.2413 16.4064 14.1167 16.3212 13.9785 16.2649L13.9219 16.2434L13.3057 16.0334C12.8486 15.8773 12.8347 15.2458 13.2637 15.0608L13.3057 15.0442L13.9219 14.8342C14.063 14.786 14.1923 14.708 14.3008 14.6057C14.4094 14.5032 14.4954 14.3778 14.5518 14.2395L14.5723 14.1838L14.7832 13.5667ZM15.8643 2.80005C16.6003 2.80031 17.1971 3.39694 17.1973 4.13306V11.9329C17.1973 12.2273 16.9584 12.4668 16.6641 12.467C16.3697 12.4669 16.1309 12.2273 16.1309 11.9329V4.13306C16.1307 3.98605 16.0112 3.86672 15.8643 3.86646H4.13086C3.98375 3.86656 3.86438 3.98595 3.86426 4.13306V15.8665C3.86426 16.0132 3.98404 16.1331 4.13184 16.1331H12.1309L12.2383 16.1438C12.4811 16.1936 12.6639 16.4087 12.6641 16.6663C12.6641 16.9239 12.4812 17.1389 12.2383 17.1887L12.1309 17.1995H4.13184C3.39598 17.1995 2.79688 16.6034 2.79688 15.8665V4.13306C2.797 3.39685 3.39464 2.80015 4.13086 2.80005H15.8643ZM13.4395 6.80884C13.4813 6.80884 13.5207 6.81164 13.5566 6.81763C13.6343 6.82966 13.703 6.8663 13.7627 6.92603C13.7985 6.95596 13.8315 7.00393 13.8613 7.06958C13.8732 7.10536 13.8827 7.14123 13.8887 7.177C13.9006 7.20685 13.9091 7.23984 13.915 7.27563C13.921 7.31735 13.9238 7.35607 13.9238 7.39185C13.9298 7.42774 13.9336 7.46434 13.9336 7.50024C13.9336 7.54197 13.9298 7.58067 13.9238 7.61646V7.86743L13.8701 12.5256V12.6155C13.8701 12.6334 13.8673 12.6578 13.8613 12.6877C13.8613 12.7115 13.8584 12.7411 13.8525 12.7766C13.8406 12.8065 13.8284 12.8403 13.8164 12.8762C13.8104 12.906 13.801 12.9391 13.7891 12.9749C13.7712 13.0046 13.7504 13.0349 13.7266 13.0647C13.7087 13.0884 13.6849 13.1122 13.6553 13.136C13.6075 13.1838 13.5294 13.2167 13.4219 13.2346C13.2603 13.2705 13.1075 13.2555 12.9639 13.1897C12.8921 13.1418 12.8414 13.0818 12.8115 13.01C12.7936 12.9921 12.7842 12.9742 12.7842 12.9563C12.7783 12.9446 12.7725 12.9359 12.7666 12.9299C12.7606 12.9239 12.754 12.9146 12.748 12.9026C12.7361 12.8728 12.7276 12.8426 12.7217 12.8127C12.7157 12.7769 12.7129 12.7411 12.7129 12.7053C12.7069 12.6754 12.7003 12.6454 12.6943 12.6155C12.6943 12.5856 12.6915 12.5555 12.6855 12.5256C12.6796 12.4778 12.6796 12.427 12.6855 12.3733V12.2385L12.6943 11.5295L12.7031 10.2102C12.7091 10.0189 12.7129 9.82165 12.7129 9.61841V8.41528C12.7129 8.24778 12.7185 8.05923 12.7305 7.84985V7.81372C12.7364 7.75415 12.7392 7.69458 12.7393 7.63501C12.7452 7.56919 12.748 7.50258 12.748 7.43677C12.7541 7.32917 12.7879 7.21267 12.8477 7.08716C12.8895 7.00346 12.9524 6.93113 13.0361 6.87134C13.1315 6.82372 13.224 6.80012 13.3135 6.80005C13.3613 6.80005 13.4036 6.80286 13.4395 6.80884ZM8.9043 6.83618C9.01787 6.8362 9.11649 6.85121 9.2002 6.8811C9.26586 6.91097 9.31667 6.94958 9.35254 6.99731C9.39439 7.05112 9.43948 7.11406 9.4873 7.18579C9.5232 7.24562 9.55602 7.31504 9.58594 7.39282C9.59789 7.43455 9.61296 7.47042 9.63086 7.50024C9.64879 7.53014 9.66382 7.56301 9.67578 7.59888L9.72949 7.74243L11.5967 12.3372C11.5967 12.3372 11.6051 12.3644 11.623 12.4182C11.6409 12.4719 11.656 12.5256 11.668 12.5793C11.674 12.6152 11.6768 12.6518 11.6768 12.6877C11.6827 12.7176 11.6865 12.7534 11.6865 12.7952C11.6865 12.867 11.6649 12.9326 11.623 12.9924C11.6051 13.0223 11.5816 13.0524 11.5518 13.0823C11.522 13.1061 11.486 13.1269 11.4443 13.1448C11.2948 13.2285 11.1353 13.2586 10.9678 13.2346C10.8843 13.2107 10.8098 13.172 10.7441 13.1184C10.7322 13.1064 10.7228 13.0999 10.7168 13.0999C10.7109 13.0939 10.7051 13.0852 10.6992 13.0735L10.6543 13.0286C10.6244 12.9986 10.6 12.9714 10.582 12.9475C10.5641 12.9177 10.5462 12.8875 10.5283 12.8577C10.5164 12.8279 10.5012 12.8014 10.4834 12.7776C10.4714 12.7477 10.4564 12.7176 10.4385 12.6877C10.4265 12.6638 10.4143 12.6422 10.4023 12.6243C10.3905 12.6005 10.3819 12.5767 10.376 12.553C10.3521 12.4992 10.3371 12.4513 10.3311 12.4094L10.1426 11.969C9.72982 11.969 9.31705 11.9728 8.9043 11.9788C8.49754 11.9788 8.08754 11.975 7.6748 11.969L7.48633 12.4094C7.47442 12.4333 7.46496 12.4569 7.45898 12.4807C7.45898 12.5046 7.45337 12.529 7.44141 12.553C7.42949 12.5768 7.41719 12.6004 7.40527 12.6243C7.39929 12.6422 7.3899 12.6638 7.37793 12.6877C7.36006 12.7175 7.34209 12.7478 7.32422 12.7776C7.3123 12.8014 7.29712 12.828 7.2793 12.8577C7.26733 12.8876 7.25232 12.9176 7.23438 12.9475C7.21644 12.9714 7.19297 12.9987 7.16309 13.0286C7.15121 13.0345 7.14173 13.0431 7.13574 13.0549C7.12976 13.0609 7.12415 13.0675 7.11816 13.0735C7.11234 13.0851 7.10641 13.0939 7.10059 13.0999C7.0946 13.0999 7.08521 13.1064 7.07324 13.1184C7.00744 13.1722 6.93237 13.2107 6.84863 13.2346C6.68116 13.2585 6.52258 13.2285 6.37305 13.1448C6.3313 13.1269 6.29547 13.1061 6.26562 13.0823C6.23571 13.0524 6.21131 13.0223 6.19336 12.9924C6.1516 12.9327 6.13086 12.8669 6.13086 12.7952V12.6877C6.13684 12.6518 6.14245 12.6152 6.14844 12.5793C6.16038 12.5256 6.17546 12.4719 6.19336 12.4182C6.21131 12.3644 6.2207 12.3372 6.2207 12.3372L8.08691 7.74243L8.1416 7.59888C8.15357 7.56299 8.16858 7.53015 8.18652 7.50024C8.20438 7.47047 8.21854 7.43444 8.23047 7.39282C8.26038 7.31504 8.29418 7.24562 8.33008 7.18579C8.34799 7.15001 8.36871 7.11699 8.39258 7.08716C8.41646 7.05731 8.43999 7.02717 8.46387 6.99731C8.49977 6.94945 8.55137 6.91102 8.61719 6.8811C8.7009 6.85124 8.79669 6.83618 8.9043 6.83618ZM8.84082 9.11548C8.81697 9.16915 8.79339 9.22294 8.76953 9.27661C8.67982 9.468 8.59252 9.65663 8.50879 9.84204C8.43101 10.0275 8.35317 10.2076 8.27539 10.3811L8.11426 10.7756H9.70312L9.54102 10.3811C9.46323 10.2076 9.38259 10.0275 9.29883 9.84204C9.22109 9.65669 9.13753 9.46793 9.04785 9.27661C9.02396 9.22286 8.99947 9.16923 8.97559 9.11548C8.95167 9.05569 8.92821 8.99839 8.9043 8.94458C8.88635 8.99843 8.86475 9.05565 8.84082 9.11548Z" fill="url(#paint0_linear_5061_3785)"/>
<defs>
<linearGradient id="paint0_linear_5061_3785" x1="10.1997" y1="2.80005" x2="10.1997" y2="17.8641" gradientUnits="userSpaceOnUse">
<stop stop-color="#ABA2FF"/>
<stop offset="1" stop-color="#03D4EF"/>
</linearGradient>
</defs>
</svg>
