<svg width="20" height="20" viewBox="0 0 20 20" fill="none" xmlns="http://www.w3.org/2000/svg">
<path d="M15.219 16.2667H4.77896C4.13699 16.2667 3.51933 16.0206 3.0527 15.5788C2.58607 15.1369 2.30584 14.5329 2.26949 13.8905L2.26563 13.7479V5.61045C2.26557 5.1686 2.43289 4.74321 2.73378 4.42024C3.03466 4.09727 3.44667 3.90082 3.88653 3.87057L4.00562 3.8667H13.6723C14.1132 3.86664 14.5377 4.03433 14.8599 4.33586C15.1822 4.63739 15.3782 5.05029 15.4084 5.4911L15.4123 5.61045V6.1917H15.9923C16.4332 6.19164 16.8577 6.35933 17.1799 6.66086C17.5022 6.96239 17.6982 7.37529 17.7284 7.8161L17.7323 7.93545V13.7479C17.7323 14.3913 17.4867 15.0103 17.0458 15.4779C16.6049 15.9456 16.0022 16.2264 15.3613 16.2628L15.219 16.2667ZM4.77896 15.1042H15.219C15.5587 15.1042 15.886 14.9761 16.1359 14.7453C16.3858 14.5146 16.5399 14.1981 16.5677 13.8588L16.5723 13.7479V7.93545C16.5723 7.79499 16.5215 7.65928 16.4294 7.55343C16.3373 7.44757 16.21 7.37873 16.0712 7.35962L15.9923 7.3542H15.4123V13.3604C15.4123 13.5009 15.3615 13.6366 15.2694 13.7425C15.1773 13.8483 15.05 13.9172 14.9112 13.9363L14.8323 13.9417C14.6921 13.9417 14.5567 13.8908 14.4511 13.7985C14.3455 13.7062 14.2768 13.5787 14.2577 13.4395L14.2523 13.3604V5.61045C14.2523 5.46999 14.2015 5.33428 14.1094 5.22843C14.0173 5.12257 13.89 5.05373 13.7512 5.03462L13.6723 5.0292H4.00562C3.86547 5.02921 3.73005 5.08007 3.62443 5.17239C3.5188 5.26472 3.4501 5.39224 3.43104 5.5314L3.42563 5.61045V13.7479C3.42564 14.0883 3.55336 14.4162 3.78343 14.6666C4.0135 14.917 4.32911 15.0715 4.6676 15.0995L4.77896 15.1042ZM10.1892 12.0042H12.5138C12.6608 12.0042 12.8022 12.0602 12.9096 12.1607C13.017 12.2613 13.0823 12.3989 13.0923 12.5458C13.1023 12.6928 13.0563 12.838 12.9636 12.9523C12.8708 13.0665 12.7383 13.1412 12.5927 13.1613L12.5138 13.1667H10.1892C10.0422 13.1667 9.90079 13.1107 9.79341 13.0102C9.68603 12.9096 9.62074 12.772 9.61072 12.6251C9.60071 12.4781 9.64672 12.3329 9.73945 12.2186C9.83219 12.1044 9.96474 12.0297 10.1103 12.0096L10.1892 12.0042ZM7.86688 9.29557C8.0207 9.29557 8.16823 9.35681 8.277 9.46582C8.38577 9.57482 8.44688 9.72267 8.44688 9.87682V12.5854C8.44688 12.7396 8.38577 12.8874 8.277 12.9965C8.16823 13.1055 8.0207 13.1667 7.86688 13.1667H5.16408C5.01025 13.1667 4.86273 13.1055 4.75396 12.9965C4.64519 12.8874 4.58408 12.7396 4.58408 12.5854V9.87682C4.58408 9.72267 4.64519 9.57482 4.75396 9.46582C4.86273 9.35681 5.01025 9.29557 5.16408 9.29557H7.86688ZM7.28688 10.4581H5.74408V12.0042H7.28688V10.4581ZM10.1892 9.29557H12.5138C12.6608 9.29562 12.8022 9.35156 12.9096 9.4521C13.017 9.55264 13.0823 9.69028 13.0923 9.83721C13.1023 9.98413 13.0563 10.1294 12.9636 10.2436C12.8708 10.3579 12.7383 10.4326 12.5927 10.4526L12.5138 10.4581H10.1892C10.0412 10.4596 9.89823 10.4043 9.78955 10.3036C9.68088 10.2029 9.61473 10.0644 9.60465 9.91645C9.59457 9.76847 9.64132 9.62222 9.73533 9.50766C9.82933 9.3931 9.96349 9.31889 10.1103 9.30022L10.1892 9.29557ZM5.16408 6.58075H12.5138C12.6618 6.57924 12.8048 6.63449 12.9135 6.73518C13.0222 6.83588 13.0883 6.9744 13.0984 7.12238C13.1085 7.27036 13.0617 7.4166 12.9677 7.53116C12.8737 7.64572 12.7395 7.71994 12.5927 7.7386L12.5138 7.74325H5.16408C5.01713 7.7432 4.87567 7.68726 4.76829 7.58672C4.66091 7.48618 4.59562 7.34854 4.5856 7.20162C4.57559 7.05469 4.6216 6.90943 4.71433 6.79519C4.80707 6.68095 4.93962 6.60625 5.0852 6.58617L5.16408 6.58075Z" fill="url(#paint0_linear_5061_3811)"/>
<defs>
<linearGradient id="paint0_linear_5061_3811" x1="9.99896" y1="3.8667" x2="9.99896" y2="16.2667" gradientUnits="userSpaceOnUse">
<stop stop-color="#ABA2FF"/>
<stop offset="1" stop-color="#03D4EF"/>
</linearGradient>
</defs>
</svg>
