<svg width="38" height="37" viewBox="0 0 38 37" fill="none" xmlns="http://www.w3.org/2000/svg">
<path d="M34.7379 19.0816C34.7379 17.7746 34.6297 16.8208 34.3955 15.8318H19.1665V21.7308H28.1056C27.9254 23.1968 26.9522 25.4046 24.7895 26.8881L24.7592 27.0856L29.5743 30.7412L29.9079 30.7739C32.9717 28.0009 34.7379 23.9209 34.7379 19.0816Z" fill="#4285F4"/>
<path d="M19.1654 34.6242C23.5447 34.6242 27.2213 33.2111 29.9067 30.7738L24.7883 26.8881C23.4186 27.8242 21.5803 28.4777 19.1654 28.4777C14.8761 28.4777 11.2356 25.7048 9.93781 21.8721L9.74759 21.8879L4.74077 25.6853L4.67529 25.8637C7.34258 31.0563 12.8214 34.6242 19.1654 34.6242Z" fill="#34A853"/>
<path d="M9.93894 21.8723C9.59652 20.8833 9.39835 19.8235 9.39835 18.7285C9.39835 17.6334 9.59652 16.5737 9.92092 15.5846L9.91185 15.374L4.84227 11.5156L4.6764 11.5929C3.57708 13.7477 2.94629 16.1675 2.94629 18.7285C2.94629 21.2895 3.57708 23.7091 4.6764 25.8639L9.93894 21.8723Z" fill="#FBBC05"/>
<path d="M19.1654 8.97887C22.2112 8.97887 24.2657 10.2682 25.4372 11.3457L30.015 6.96544C27.2035 4.40445 23.5449 2.83252 19.1654 2.83252C12.8215 2.83252 7.3426 6.40022 4.67529 11.5928L9.91983 15.5845C11.2356 11.7518 14.8761 8.97887 19.1654 8.97887Z" fill="#EB4335"/>
</svg>
