<svg width="25" height="26" viewBox="0 0 25 26" fill="none" xmlns="http://www.w3.org/2000/svg">
<path id="Vector" fill-rule="evenodd" clip-rule="evenodd" d="M12.1064 0C13.5739 0 14.9541 0.379581 16.1418 1.04515C16.3026 1.12641 16.4447 1.23826 16.5595 1.37397C16.6744 1.50968 16.7597 1.66643 16.8102 1.83481C16.8608 2.00319 16.8755 2.17971 16.8537 2.35375C16.8318 2.52779 16.7737 2.69576 16.6829 2.84754C16.5921 2.99933 16.4705 3.1318 16.3254 3.23699C16.1802 3.34217 16.0146 3.4179 15.8383 3.45961C15.6621 3.50132 15.479 3.50815 15.3 3.4797C15.121 3.45124 14.9498 3.38809 14.7967 3.29404C13.9785 2.83756 13.0504 2.59729 12.1057 2.5974C11.161 2.59751 10.233 2.83799 9.41496 3.29465C8.59693 3.75132 7.91773 4.40807 7.44567 5.19888C6.97361 5.98968 6.72532 6.88666 6.72576 7.79961L21.5224 7.80091C22.236 7.80091 22.9202 8.07482 23.4248 8.56239C23.9293 9.04996 24.2127 9.71125 24.2127 10.4008V23.4001C24.2127 24.0897 23.9293 24.7509 23.4248 25.2385C22.9202 25.7261 22.236 26 21.5224 26H2.69031C1.97679 26 1.2925 25.7261 0.787972 25.2385C0.283442 24.7509 0 24.0897 0 23.4001V10.3995C0 9.70995 0.283442 9.04867 0.787972 8.56109C1.2925 8.07352 1.97679 7.79961 2.69031 7.79961H4.03546C4.03546 5.73102 4.88578 3.74716 6.39937 2.28445C7.91297 0.821742 9.96583 0 12.1064 0ZM12.1064 12.9993C11.5142 12.9994 10.9385 13.1882 10.4687 13.5366C9.99887 13.885 9.66114 14.3735 9.50786 14.9263C9.35458 15.4791 9.39433 16.0653 9.62095 16.5941C9.84756 17.1228 10.2484 17.5645 10.7612 17.8507V19.499C10.7612 19.8438 10.9029 20.1744 11.1552 20.4182C11.4075 20.662 11.7496 20.799 12.1064 20.799C12.4631 20.799 12.8053 20.662 13.0575 20.4182C13.3098 20.1744 13.4515 19.8438 13.4515 19.499V17.8507C13.9644 17.5645 14.3652 17.1228 14.5918 16.5941C14.8184 16.0653 14.8582 15.4791 14.7049 14.9263C14.5516 14.3735 14.2139 13.885 13.7441 13.5366C13.2742 13.1882 12.6986 12.9994 12.1064 12.9993ZM22.7573 3.9271L24.0567 4.26509C24.388 4.36532 24.6664 4.58546 24.8336 4.87947C25.0009 5.17348 25.044 5.51859 24.954 5.84262C24.864 6.16666 24.6479 6.44452 24.3508 6.61809C24.0537 6.79167 23.6986 6.84752 23.3599 6.77396L22.0618 6.43858C21.7187 6.34818 21.4266 6.13013 21.2494 5.83212C21.0721 5.53411 21.0243 5.1804 21.1162 4.84837C21.2081 4.51634 21.4324 4.23301 21.74 4.06036C22.0475 3.88772 22.4133 3.8398 22.7573 3.9271ZM21.0288 0.116994C21.1994 0.16119 21.3594 0.237441 21.4996 0.341391C21.6397 0.445341 21.7573 0.574955 21.8456 0.72283C21.9339 0.870705 21.9912 1.03394 22.0143 1.20322C22.0373 1.3725 22.0256 1.54451 21.9798 1.70941L21.8063 2.33598C21.7613 2.50159 21.6829 2.65697 21.5755 2.79321C21.4682 2.92944 21.3341 3.04385 21.1809 3.12985C21.0277 3.21585 20.8584 3.27176 20.6828 3.29437C20.5072 3.31697 20.3287 3.30582 20.1575 3.26156C19.9864 3.2173 19.8259 3.1408 19.6855 3.03645C19.545 2.9321 19.4272 2.80197 19.3389 2.65352C19.2507 2.50506 19.1936 2.34122 19.171 2.1714C19.1485 2.00157 19.1608 1.82911 19.2074 1.66392L19.3823 1.03605C19.4747 0.703273 19.7 0.41955 20.0087 0.24722C20.3174 0.0748895 20.6843 0.0280503 21.0288 0.116994Z" fill="white"/>
</svg>
