<svg width="24" height="24" viewBox="0 0 24 24" fill="none" xmlns="http://www.w3.org/2000/svg">
<path fill-rule="evenodd" clip-rule="evenodd" d="M5.58417 9.08498C7.16142 5.57118 11.2307 4.02778 14.6732 5.63769C16.1224 6.3154 17.2299 7.44362 17.9086 8.78644L15.132 7.89723L14.5455 9.80504L20.2197 11.6222L22 5.83052L20.1309 5.23194L19.44 7.47951C18.5573 5.92588 17.2113 4.62523 15.4892 3.81989C11.0631 1.75001 5.83114 3.73439 3.80326 8.25212C1.77537 12.7699 3.71949 18.1102 8.14557 20.1801C11.8811 21.927 16.1881 20.786 18.6613 17.6741C19.1201 17.0969 19.5152 16.4526 19.8315 15.7478L18.0506 14.915C17.8034 15.4656 17.4959 15.9667 17.14 16.4144C15.2162 18.8351 11.8647 19.72 8.96153 18.3623C5.51902 16.7524 4.00693 12.5988 5.58417 9.08498Z" fill="white"/>
</svg>
