<svg width="24" height="24" viewBox="0 0 24 24" fill="none" xmlns="http://www.w3.org/2000/svg">
<path d="M17.1034 15.4039H16.2122L15.8963 15.0995C16.6013 14.2809 17.1166 13.3167 17.4052 12.2759C17.6939 11.235 17.7488 10.1433 17.566 9.07875C17.0357 5.94435 14.4184 3.44134 11.2596 3.058C10.1491 2.91759 9.02116 3.03294 7.9621 3.39521C6.90304 3.75749 5.94094 4.3571 5.14942 5.14816C4.3579 5.93921 3.75794 6.90075 3.39545 7.95919C3.03295 9.01763 2.91754 10.1449 3.05803 11.2548C3.4416 14.4117 5.94608 17.0275 9.08232 17.5574C10.1475 17.7401 11.2398 17.6853 12.2813 17.3968C13.3228 17.1083 14.2875 16.5934 15.1066 15.8887L15.4112 16.2044V17.0951L20.2058 21.8869C20.6683 22.3492 21.4242 22.3492 21.8867 21.8869C22.3493 21.4247 22.3493 20.6693 21.8867 20.207L17.1034 15.4039ZM10.3346 15.4039C7.52548 15.4039 5.25791 13.1377 5.25791 10.3303C5.25791 7.52283 7.52548 5.25659 10.3346 5.25659C13.1436 5.25659 15.4112 7.52283 15.4112 10.3303C15.4112 13.1377 13.1436 15.4039 10.3346 15.4039Z" fill="white"/>
</svg>
