<svg width="24" height="24" viewBox="0 0 24 24" fill="none" xmlns="http://www.w3.org/2000/svg">
<path fill-rule="evenodd" clip-rule="evenodd" d="M10.4588 4.92067C9.93929 3.88563 8.55369 3.7262 7.06027 4.4561L10.4588 4.92067ZM7.06027 4.4561C6.21099 4.80363 5.08799 5.56325 4.46108 6.79427C3.78535 8.12116 3.77935 9.81086 4.93583 11.7303C7.00887 15.171 9.54096 17.7567 10.5927 18.6546C11.7917 19.678 14.9461 21.0724 18.1289 18.6953L18.1535 18.6769L19.6068 17.4456L19.6996 17.24C19.899 16.7983 20.0775 16.0967 19.9658 15.3525C19.8455 14.5514 19.3874 13.7354 18.3955 13.2415L16.7185 12.4065C15.9086 12.0032 14.7047 12.2476 13.8248 13.4933L13.5841 13.7329C13.5798 13.7324 13.5752 13.7317 13.5702 13.7308C13.4862 13.7164 13.2211 13.6362 12.8237 13.1947C11.9243 12.1957 11.1874 11.1988 10.8803 10.7535C10.8809 10.7473 10.882 10.74 10.8837 10.7317C10.8893 10.7054 10.9109 10.625 11.0124 10.5088C11.0965 10.4946 11.1826 10.4757 11.2688 10.451C11.5016 10.3846 11.809 10.2557 12.0652 9.99583C12.3498 9.70706 12.516 9.30932 12.4913 8.85566C12.4688 8.44477 12.2949 8.06697 12.073 7.7355C11.4361 6.78417 10.731 5.46276 10.4588 4.92067M13.6262 13.7338L13.6239 13.7343L13.6262 13.7338ZM8.76427 6.00064C8.64074 6.0008 8.37063 6.03769 7.91503 6.26454L7.87789 6.28303L7.83936 6.29838C7.29552 6.51501 6.59892 7.00354 6.24328 7.70188C5.92683 8.32328 5.79308 9.27768 6.64892 10.6982C8.60047 13.9372 10.9868 16.3614 11.8913 17.1335M8.76427 6.00064C9.06608 6.58749 9.64426 7.65723 10.2232 8.56098L9.97381 8.75494C8.73721 9.7168 8.7053 10.9807 9.11291 11.7048L9.13186 11.7384L9.15335 11.7705C9.45643 12.2233 10.2959 13.376 11.3373 14.5328C12.5725 15.905 13.9933 16.0165 14.8211 15.3188L14.8529 15.292L15.3717 14.7753L15.4269 14.693C15.6656 14.3364 15.8491 14.2561 15.8994 14.2392C15.9022 14.2383 15.9048 14.2375 15.9072 14.2367L17.504 15.0318C17.8536 15.2059 17.9544 15.4263 17.9879 15.6494C18.0179 15.8489 17.9893 16.0639 17.9415 16.2352L16.9085 17.1104C14.7336 18.7168 12.646 17.7777 11.8913 17.1335" fill="black"/>
</svg>
